<svg id="svg" version="1.1" xmlns="http://www.w3.org/2000/svg" xmlns:xlink="http://www.w3.org/1999/xlink" width="400" height="180.64516129032256" viewBox="0, 0, 400,180.64516129032256"><g id="svgg"><path id="path1" d="M197.224 8.414 C 194.720 8.686,191.854 9.200,191.608 9.421 C 191.514 9.506,191.219 9.575,190.953 9.575 C 190.487 9.575,187.483 10.503,185.998 11.105 C 173.271 16.268,164.108 26.665,160.719 39.787 C 159.730 43.620,159.632 44.542,159.631 50.045 C 159.631 55.790,159.673 56.148,160.972 61.427 C 161.272 62.646,162.033 64.829,162.526 65.888 C 162.766 66.403,162.963 66.868,162.963 66.922 C 162.963 66.975,163.232 67.569,163.562 68.243 C 168.115 77.553,175.736 84.773,185.276 88.813 C 187.111 89.590,186.944 89.534,190.605 90.614 C 191.052 90.746,192.069 90.972,192.864 91.116 C 193.659 91.261,194.878 91.488,195.574 91.621 C 197.248 91.943,205.638 91.962,207.046 91.648 C 207.593 91.526,208.731 91.297,209.575 91.138 C 218.743 89.420,228.045 83.809,233.820 76.513 C 234.902 75.147,237.037 72.167,237.037 72.024 C 237.037 71.975,237.389 71.340,237.819 70.611 C 239.200 68.271,240.647 64.862,241.373 62.240 C 241.456 61.942,241.684 61.129,241.881 60.434 C 242.225 59.219,242.564 57.380,243.013 54.291 C 243.445 51.312,243.010 44.309,242.180 40.881 C 241.843 39.490,240.881 36.225,240.647 35.682 C 240.562 35.483,240.436 35.123,240.368 34.880 C 240.200 34.288,238.542 30.845,237.882 29.720 C 235.931 26.392,235.296 25.469,233.426 23.249 C 230.303 19.540,226.878 16.661,222.115 13.741 C 215.485 9.676,205.421 7.522,197.224 8.414 M204.316 10.315 C 216.182 11.434,228.150 18.126,233.525 26.649 C 233.713 26.947,233.912 27.231,233.968 27.281 C 234.106 27.405,235.207 29.121,236.020 30.479 C 236.389 31.095,236.975 32.233,237.323 33.008 C 237.670 33.783,238.030 34.555,238.123 34.724 C 238.324 35.088,239.177 37.441,239.388 38.211 C 239.469 38.509,239.698 39.322,239.896 40.018 C 242.139 47.898,241.379 58.276,238.013 65.718 C 236.673 68.680,235.770 70.369,234.818 71.695 C 234.449 72.209,234.146 72.679,234.146 72.739 C 234.146 73.366,229.764 78.167,227.127 80.429 C 220.922 85.753,213.948 88.753,205.330 89.807 C 203.377 90.046,196.950 89.917,195.393 89.608 C 192.842 89.101,189.418 88.281,189.259 88.139 C 189.165 88.055,188.974 87.986,188.835 87.986 C 188.696 87.986,188.326 87.874,188.013 87.739 C 187.700 87.603,186.874 87.266,186.179 86.989 C 185.483 86.713,184.630 86.361,184.282 86.207 C 183.733 85.963,180.576 84.233,180.018 83.869 C 174.355 80.184,169.439 74.949,166.460 69.430 C 166.095 68.755,165.636 67.918,165.440 67.570 C 165.004 66.798,163.472 62.908,163.163 61.789 C 163.039 61.341,162.866 60.732,162.778 60.434 C 162.432 59.265,161.937 56.672,161.610 54.311 C 159.635 40.051,168.328 22.728,180.939 15.793 C 188.966 11.380,196.609 9.589,204.316 10.315 M198.139 17.120 C 197.794 17.198,196.866 19.051,193.729 25.923 C 193.184 27.117,192.217 29.172,191.581 30.490 C 190.945 31.808,190.425 32.924,190.425 32.971 C 190.425 33.052,189.263 35.588,188.355 37.489 C 187.074 40.169,184.679 45.258,184.189 46.341 C 184.054 46.640,183.540 47.737,183.047 48.780 C 181.900 51.210,180.849 53.495,180.849 53.562 C 180.849 53.591,180.239 54.887,179.494 56.441 C 178.749 57.996,178.139 59.297,178.139 59.334 C 178.139 59.371,177.581 60.568,176.899 61.995 C 176.218 63.422,175.475 64.995,175.249 65.492 C 174.654 66.804,173.454 69.382,173.156 69.992 C 172.788 70.745,172.835 71.129,173.306 71.217 C 174.314 71.406,174.912 70.857,175.706 69.015 C 176.167 67.948,177.446 65.161,178.256 63.461 C 178.788 62.344,179.223 61.388,179.223 61.337 C 179.223 61.286,179.670 60.321,180.217 59.193 C 180.763 58.064,181.210 57.101,181.210 57.052 C 181.210 57.003,181.848 55.630,182.626 54.001 C 183.405 52.372,184.228 50.632,184.455 50.136 C 185.377 48.118,185.983 46.811,186.634 45.438 C 188.412 41.686,190.242 37.785,190.915 36.314 C 191.164 35.768,191.634 34.752,191.959 34.056 C 192.283 33.360,192.772 32.304,193.045 31.707 C 193.319 31.111,193.985 29.688,194.526 28.546 C 195.726 26.011,196.000 25.423,196.832 23.577 C 199.004 18.759,198.955 18.812,199.720 20.556 C 200.013 21.224,200.652 22.624,201.140 23.668 C 201.628 24.711,202.331 26.215,202.703 27.010 C 203.075 27.805,203.686 29.146,204.060 29.991 C 204.434 30.836,205.341 32.777,206.074 34.304 C 206.807 35.832,207.407 37.147,207.407 37.226 C 207.407 37.304,207.529 37.599,207.678 37.881 C 208.058 38.602,210.141 43.012,211.417 45.799 C 212.009 47.091,212.644 48.473,212.828 48.871 C 213.013 49.268,213.462 50.244,213.828 51.039 C 214.193 51.834,214.605 52.720,214.743 53.009 C 214.882 53.297,214.995 53.630,214.995 53.749 C 214.995 54.078,212.047 54.201,204.140 54.201 L 197.136 54.201 196.761 54.677 C 196.445 55.078,196.268 55.718,196.432 55.868 C 196.457 55.891,200.903 55.952,206.313 56.003 L 216.149 56.098 216.561 56.911 C 217.158 58.086,219.178 62.374,219.881 63.957 C 220.212 64.702,220.590 65.440,220.720 65.597 C 220.851 65.754,220.958 65.934,220.958 65.996 C 220.958 66.059,221.233 66.703,221.569 67.428 C 221.905 68.152,222.389 69.199,222.644 69.754 C 223.286 71.149,224.106 71.654,224.849 71.110 C 225.228 70.833,225.264 70.927,222.825 65.795 C 222.195 64.470,221.680 63.360,221.680 63.326 C 221.680 63.293,221.186 62.222,220.581 60.946 C 219.977 59.671,219.319 58.261,219.119 57.814 C 218.919 57.367,218.486 56.432,218.156 55.736 C 216.821 52.915,215.829 50.796,215.325 49.684 C 214.058 46.890,213.637 45.985,212.009 42.547 C 210.375 39.096,209.327 36.852,208.043 34.056 C 207.769 33.460,207.118 32.078,206.596 30.985 C 206.074 29.892,205.463 28.591,205.239 28.094 C 205.015 27.597,204.473 26.418,204.035 25.474 C 203.597 24.530,203.018 23.272,202.748 22.678 C 200.118 16.884,199.969 16.704,198.139 17.120 M203.192 17.103 C 202.868 17.427,202.934 17.598,205.439 22.900 C 206.288 24.698,207.498 27.285,207.952 28.275 C 208.135 28.672,208.665 29.810,209.130 30.804 C 209.595 31.798,210.178 33.058,210.424 33.604 C 210.671 34.151,211.183 35.248,211.562 36.043 C 211.941 36.838,212.468 37.977,212.734 38.573 C 213.001 39.169,213.578 40.396,214.017 41.299 C 214.456 42.202,214.815 42.988,214.815 43.046 C 214.815 43.104,215.269 44.113,215.823 45.288 C 216.378 46.464,217.062 47.913,217.343 48.509 C 217.624 49.106,218.072 50.081,218.340 50.678 C 219.102 52.379,219.574 53.394,220.779 55.917 C 221.397 57.209,222.067 58.631,222.268 59.079 C 222.470 59.526,223.244 61.152,223.987 62.692 C 224.731 64.232,225.581 66.021,225.876 66.667 C 227.957 71.217,227.930 71.176,228.941 71.181 C 229.713 71.184,229.930 70.948,229.665 70.398 C 229.562 70.184,229.195 69.399,228.850 68.654 C 228.504 67.909,227.776 66.364,227.230 65.221 C 226.685 64.079,226.057 62.737,225.834 62.240 C 225.611 61.743,224.870 60.168,224.187 58.740 C 223.504 57.312,222.945 56.116,222.945 56.081 C 222.945 56.047,222.547 55.183,222.060 54.161 C 221.011 51.959,220.122 50.041,219.063 47.696 C 218.167 45.712,217.096 43.417,215.988 41.102 C 214.744 38.504,210.982 30.420,210.019 28.275 C 209.885 27.977,209.171 26.472,208.432 24.932 C 207.069 22.092,206.001 19.822,205.227 18.123 C 204.969 17.557,204.654 17.146,204.432 17.086 C 203.927 16.951,203.336 16.959,203.192 17.103 M116.170 104.046 C 110.941 105.693,109.261 111.330,112.929 114.917 C 113.781 115.749,115.065 116.304,117.750 117.001 C 125.230 118.940,126.057 119.414,126.674 122.107 C 127.914 127.524,120.647 131.198,114.558 128.231 C 113.040 127.491,110.930 125.694,110.930 125.141 C 110.930 124.602,110.204 124.175,109.928 124.552 C 109.579 125.030,109.919 125.617,111.427 127.137 C 117.640 133.394,129.980 129.038,127.432 121.487 C 126.507 118.745,125.371 118.032,119.512 116.519 C 117.922 116.108,116.378 115.708,116.079 115.630 C 113.526 114.959,111.706 112.699,111.878 110.412 C 112.330 104.408,120.108 102.559,125.294 107.224 C 126.233 108.069,126.514 108.146,126.622 107.591 C 126.715 107.112,124.989 105.587,123.564 104.888 C 121.180 103.719,118.262 103.387,116.170 104.046 M45.935 104.733 C 45.612 104.854,45.656 105.394,46.054 106.182 C 46.244 106.558,46.615 107.353,46.878 107.949 C 47.141 108.546,47.554 109.440,47.795 109.937 C 49.105 112.636,52.213 119.370,52.213 119.510 C 52.213 119.548,52.933 121.068,53.813 122.888 C 55.738 126.868,56.369 128.236,56.369 128.432 C 56.369 128.699,57.064 129.216,57.261 129.095 C 57.642 128.859,57.473 128.171,56.704 126.829 C 56.618 126.680,56.476 126.396,56.388 126.197 C 56.300 125.998,56.015 125.373,55.756 124.807 C 55.496 124.242,55.203 123.592,55.104 123.362 C 55.005 123.133,54.848 122.823,54.755 122.674 C 54.539 122.326,53.117 119.290,53.117 119.176 C 53.117 119.095,52.317 117.363,50.768 114.092 C 50.392 113.297,49.799 112.037,49.450 111.292 C 49.101 110.547,48.475 109.214,48.058 108.330 C 47.641 107.446,47.153 106.389,46.974 105.981 C 46.557 105.032,46.220 104.627,45.935 104.733 M76.365 104.833 C 76.080 105.042,76.061 105.939,76.105 117.073 L 76.152 129.088 82.746 129.138 C 86.373 129.166,89.523 129.144,89.747 129.089 C 90.077 129.009,90.304 128.586,90.108 128.416 C 90.084 128.394,87.136 128.333,83.559 128.280 L 77.055 128.184 77.004 123.126 C 76.977 120.343,77.000 117.878,77.056 117.648 L 77.159 117.229 81.949 117.269 C 85.368 117.297,86.798 117.249,86.947 117.100 C 87.421 116.626,86.680 116.536,81.927 116.489 L 77.055 116.441 77.055 111.021 L 77.055 105.601 83.288 105.559 C 86.716 105.536,89.664 105.516,89.837 105.514 C 90.236 105.510,90.261 104.868,89.868 104.717 C 89.269 104.487,76.688 104.595,76.365 104.833 M94.706 104.824 C 94.359 105.171,94.397 128.695,94.745 128.984 C 95.218 129.377,95.239 128.868,95.239 116.865 C 95.239 105.400,95.192 104.339,94.706 104.824 M106.743 105.101 C 106.486 105.376,105.781 106.292,105.176 107.136 C 104.571 107.981,103.992 108.770,103.890 108.890 C 103.787 109.010,103.704 109.148,103.704 109.197 C 103.704 109.246,103.318 109.801,102.846 110.431 C 102.374 111.061,101.500 112.253,100.903 113.079 C 100.307 113.906,99.530 114.960,99.176 115.421 C 98.102 116.823,98.109 116.983,99.301 118.459 C 99.636 118.873,99.910 119.264,99.910 119.327 C 99.910 119.391,100.418 120.113,101.039 120.932 C 101.660 121.751,102.249 122.547,102.349 122.700 C 102.448 122.854,102.914 123.500,103.385 124.136 C 103.855 124.773,104.424 125.560,104.649 125.885 C 104.874 126.211,105.181 126.630,105.330 126.817 C 105.479 127.004,105.723 127.342,105.872 127.568 C 106.453 128.449,107.265 129.231,107.469 129.106 C 107.924 128.824,107.802 128.582,105.898 125.999 C 105.465 125.412,104.955 124.729,104.764 124.481 C 104.573 124.232,104.059 123.500,103.622 122.855 C 103.184 122.209,102.093 120.705,101.197 119.512 C 99.114 116.741,99.137 117.079,100.876 114.702 C 101.686 113.594,102.668 112.231,103.059 111.674 C 103.449 111.116,104.463 109.724,105.312 108.582 C 106.161 107.439,107.045 106.230,107.276 105.895 C 107.993 104.858,107.565 104.221,106.743 105.101 M138.995 105.014 C 138.796 105.237,138.448 105.867,138.222 106.414 C 137.996 106.960,137.569 107.895,137.273 108.491 C 136.976 109.088,136.623 109.819,136.488 110.117 C 136.353 110.416,135.842 111.513,135.353 112.556 C 134.865 113.600,134.260 114.901,134.011 115.447 C 133.761 115.994,133.214 117.173,132.795 118.067 C 132.377 118.961,131.750 120.303,131.403 121.048 C 131.057 121.793,130.500 122.972,130.166 123.668 C 127.949 128.291,127.731 128.863,128.102 129.093 C 128.495 129.335,129.005 128.524,130.209 125.745 C 130.526 125.012,131.126 123.723,132.414 121.003 C 132.919 119.935,133.333 119.019,133.333 118.968 C 133.333 118.917,133.994 117.515,134.801 115.852 C 136.463 112.427,137.255 110.738,137.865 109.313 C 139.414 105.700,139.601 105.585,140.536 107.678 C 141.274 109.332,141.759 110.398,142.551 112.105 C 142.827 112.701,143.313 113.758,143.631 114.453 C 143.949 115.149,144.730 116.820,145.366 118.167 C 146.002 119.513,146.522 120.713,146.522 120.832 C 146.522 120.992,145.579 121.048,142.838 121.048 C 139.441 121.048,139.122 121.075,138.728 121.403 C 138.169 121.869,137.876 121.831,142.818 121.943 L 147.154 122.042 147.696 123.137 C 147.995 123.740,148.550 124.919,148.931 125.757 C 150.367 128.921,150.549 129.216,150.965 129.056 C 151.378 128.898,151.269 128.463,150.337 126.557 C 149.103 124.032,148.148 122.001,148.148 121.900 C 148.148 121.854,147.570 120.606,146.864 119.128 C 145.365 115.990,144.354 113.819,144.354 113.737 C 144.354 113.705,143.704 112.330,142.909 110.682 C 142.114 109.033,141.463 107.648,141.463 107.604 C 141.463 107.560,141.184 106.919,140.842 106.180 C 140.084 104.537,139.660 104.269,138.995 105.014 M141.933 104.740 C 141.686 104.987,141.873 105.617,142.740 107.455 C 143.243 108.522,143.823 109.761,144.027 110.208 C 144.232 110.655,144.665 111.590,144.991 112.285 C 145.885 114.197,146.703 116.007,146.703 116.073 C 146.703 116.105,147.360 117.502,148.163 119.177 C 149.750 122.485,150.351 123.760,151.177 125.565 C 152.484 128.419,152.663 128.771,152.919 128.984 C 153.224 129.236,153.568 129.103,153.568 128.732 C 153.568 128.488,152.996 127.196,151.447 123.939 C 150.539 122.030,149.853 120.554,148.384 117.344 C 147.838 116.152,146.918 114.201,146.341 113.008 C 145.043 110.326,143.993 108.061,143.993 107.941 C 143.993 107.234,142.210 104.463,141.933 104.740 M174.017 104.839 C 173.867 105.018,173.807 108.136,173.799 116.139 C 173.789 125.986,173.757 127.191,173.508 127.191 C 173.231 127.191,172.556 126.516,172.544 126.228 C 172.541 126.145,171.983 125.332,171.305 124.421 C 169.468 121.953,167.233 118.882,167.028 118.545 C 166.929 118.381,166.522 117.825,166.125 117.308 C 165.727 116.791,165.213 116.100,164.982 115.772 C 164.752 115.444,163.306 113.428,161.769 111.292 C 160.232 109.155,158.551 106.818,158.033 106.097 C 157.191 104.925,157.034 104.791,156.549 104.832 L 156.007 104.878 155.961 116.918 C 155.918 128.044,155.937 128.966,156.217 129.074 C 156.785 129.292,156.815 128.722,156.817 117.570 C 156.819 111.434,156.881 106.415,156.956 106.417 C 157.030 106.419,157.620 107.162,158.266 108.069 C 158.911 108.975,159.892 110.336,160.444 111.092 C 160.996 111.848,161.809 112.962,162.251 113.569 C 162.692 114.175,163.849 115.761,164.822 117.092 C 165.794 118.423,168.128 121.636,170.008 124.231 C 173.239 128.694,173.863 129.385,174.376 129.068 C 174.571 128.948,174.566 105.131,174.372 104.824 C 174.251 104.634,174.184 104.637,174.017 104.839 M180.695 104.760 C 180.356 104.985,180.383 128.814,180.722 129.043 C 181.138 129.324,192.221 129.073,193.225 128.760 C 194.902 128.238,195.389 128.019,196.586 127.246 C 204.154 122.358,204.150 111.560,196.579 106.533 C 195.410 105.756,195.007 105.575,193.225 105.020 C 192.185 104.696,181.136 104.467,180.695 104.760 M207.261 104.752 C 206.922 104.982,206.920 128.808,207.260 129.018 C 207.835 129.373,207.949 128.817,207.949 125.654 L 207.949 122.536 213.324 122.453 C 217.237 122.392,218.762 122.426,218.930 122.578 C 219.184 122.808,221.084 125.990,221.900 127.552 C 222.548 128.793,222.966 129.228,223.363 129.075 C 223.760 128.923,223.748 128.607,223.327 128.071 C 223.035 127.700,222.298 126.427,220.280 122.805 C 219.724 121.808,219.756 121.674,220.672 121.137 C 221.855 120.444,223.209 118.871,223.980 117.293 L 224.661 115.899 224.661 113.550 C 224.661 109.608,222.784 106.781,219.128 105.221 C 217.924 104.706,207.912 104.311,207.261 104.752 M236.874 105.250 C 236.666 105.603,236.495 105.930,236.495 105.977 C 236.495 106.023,236.000 107.096,235.394 108.360 C 234.789 109.625,234.144 110.985,233.961 111.382 C 233.779 111.780,233.369 112.674,233.050 113.369 C 232.212 115.197,231.165 117.435,230.152 119.563 C 229.666 120.585,229.268 121.460,229.268 121.507 C 229.268 121.589,228.257 123.737,226.717 126.926 C 226.037 128.336,225.901 128.822,226.124 129.045 C 226.494 129.414,227.041 128.511,228.729 124.752 C 228.952 124.255,229.418 123.238,229.766 122.493 C 230.114 121.748,230.663 120.569,230.987 119.874 C 231.311 119.178,232.073 117.567,232.681 116.293 C 233.288 115.019,233.785 113.942,233.785 113.899 C 233.785 113.820,235.811 109.560,236.600 107.978 C 236.840 107.497,237.037 107.001,237.037 106.877 C 237.037 106.650,237.723 105.929,237.806 106.069 C 237.937 106.289,238.523 107.533,238.905 108.401 C 239.609 109.998,240.823 112.609,241.090 113.098 C 241.226 113.347,241.703 114.363,242.151 115.357 C 242.599 116.350,243.343 117.968,243.804 118.952 C 244.857 121.195,245.027 121.080,240.706 121.056 C 237.300 121.037,237.086 121.056,236.771 121.403 C 236.341 121.879,235.967 121.830,240.902 121.943 C 244.479 122.025,245.245 122.088,245.371 122.313 C 245.455 122.462,245.900 123.397,246.360 124.390 C 248.437 128.876,248.637 129.222,249.068 129.056 C 249.427 128.919,249.393 128.730,248.780 127.433 C 248.482 126.803,248.238 126.245,248.238 126.195 C 248.238 126.144,247.721 125.027,247.089 123.711 C 245.731 120.887,245.113 119.570,243.721 116.531 C 243.152 115.289,242.318 113.500,241.867 112.556 C 241.415 111.612,240.460 109.580,239.742 108.040 C 237.999 104.295,237.642 103.948,236.874 105.250 M239.944 104.858 C 239.790 105.044,239.872 105.364,240.287 106.199 C 240.586 106.803,240.831 107.347,240.831 107.408 C 240.831 107.545,241.887 109.843,243.902 114.092 C 244.598 115.560,245.626 117.766,246.300 119.241 C 246.711 120.140,247.770 122.393,249.018 125.023 C 249.466 125.967,250.034 127.189,250.280 127.739 C 250.759 128.809,251.178 129.281,251.483 129.093 C 251.874 128.851,251.943 129.026,248.983 122.807 C 248.474 121.737,248.058 120.822,248.058 120.773 C 248.058 120.724,247.563 119.648,246.957 118.382 C 245.655 115.658,244.362 112.893,243.008 109.937 C 242.826 109.539,242.262 108.363,241.754 107.323 C 241.246 106.284,240.831 105.331,240.831 105.207 C 240.831 104.831,240.179 104.575,239.944 104.858 M264.724 104.727 C 264.366 104.872,264.398 128.689,264.757 128.987 C 265.253 129.399,265.402 128.592,265.402 125.486 L 265.402 122.493 269.512 122.490 C 274.288 122.486,275.537 122.296,277.130 121.328 C 284.131 117.075,282.576 106.685,274.671 104.901 C 273.413 104.617,265.347 104.476,264.724 104.727 M286.179 104.784 C 285.942 104.933,285.908 106.478,285.908 116.892 C 285.908 127.305,285.942 128.852,286.179 129.005 C 286.493 129.208,299.806 129.161,300.011 128.956 C 300.605 128.362,299.747 128.275,293.312 128.275 C 287.668 128.275,286.928 128.242,286.831 127.989 C 286.647 127.511,286.707 118.216,286.897 117.717 L 287.073 117.254 291.911 117.251 C 296.627 117.248,297.666 117.139,297.019 116.715 C 296.858 116.609,294.754 116.536,291.846 116.534 L 286.944 116.531 286.835 116.125 C 286.692 115.592,286.688 106.167,286.831 105.796 C 286.982 105.402,306.060 105.356,306.386 105.748 C 306.524 105.915,306.586 109.402,306.592 117.341 C 306.599 128.554,306.649 129.557,307.172 129.034 C 307.260 128.946,307.332 123.750,307.334 117.374 C 307.338 104.764,307.280 105.446,308.344 105.539 C 311.669 105.829,315.460 105.360,314.525 104.774 C 314.176 104.555,286.525 104.564,286.179 104.784 M317.846 104.819 C 317.607 105.108,317.618 128.591,317.857 128.961 C 318.335 129.701,318.519 128.779,318.519 125.633 L 318.519 122.493 323.126 122.455 C 325.659 122.434,328.144 122.414,328.647 122.410 C 329.439 122.404,329.596 122.463,329.813 122.855 C 331.140 125.248,333.263 128.772,333.485 128.952 C 334.351 129.654,334.378 128.808,333.532 127.469 C 333.125 126.824,332.791 126.243,332.791 126.179 C 332.791 126.115,332.425 125.459,331.978 124.723 C 331.531 123.986,331.164 123.326,331.161 123.255 C 331.159 123.184,330.998 122.922,330.804 122.674 C 330.242 121.956,330.358 121.668,331.481 120.983 C 337.570 117.271,336.446 107.905,329.586 105.193 C 328.128 104.617,318.272 104.302,317.846 104.819 M353.126 105.211 C 352.872 105.544,352.665 105.864,352.665 105.924 C 352.665 105.984,351.702 107.684,350.526 109.701 C 349.349 111.719,348.002 114.061,347.531 114.905 C 347.061 115.750,346.397 116.917,346.057 117.499 C 345.717 118.081,345.438 118.630,345.438 118.718 C 345.438 119.096,345.049 118.828,344.627 118.161 C 344.378 117.765,344.173 117.391,344.173 117.330 C 344.173 117.269,343.726 116.496,343.180 115.612 C 342.633 114.729,342.186 113.971,342.186 113.928 C 342.186 113.885,341.780 113.194,341.283 112.393 C 340.786 111.592,340.379 110.884,340.379 110.820 C 340.379 110.756,339.983 110.044,339.499 109.236 C 338.595 107.727,338.239 107.130,337.363 105.646 C 336.859 104.792,335.825 104.320,336.115 105.076 C 336.339 105.659,341.733 115.062,344.173 119.122 C 344.619 119.863,344.626 119.937,344.682 124.446 L 344.738 129.019 345.133 128.963 C 345.525 128.907,345.529 128.869,345.619 124.300 C 345.668 121.766,345.787 119.571,345.882 119.422 C 345.977 119.273,346.124 119.070,346.209 118.970 C 346.294 118.871,347.053 117.570,347.897 116.079 C 348.741 114.589,349.507 113.248,349.599 113.098 C 350.539 111.575,352.747 107.750,353.725 105.948 C 354.412 104.683,353.956 104.123,353.126 105.211 M357.483 104.727 C 357.283 104.927,357.345 128.692,357.546 128.997 C 358.021 129.721,358.079 128.401,358.082 116.952 C 358.085 104.573,358.064 104.146,357.483 104.727 M369.425 105.193 C 369.123 105.517,368.747 105.985,368.590 106.233 C 368.434 106.481,367.858 107.294,367.311 108.040 C 366.763 108.785,366.036 109.801,365.695 110.298 C 365.354 110.795,364.864 111.455,364.606 111.765 C 364.348 112.074,363.609 113.072,362.963 113.981 C 362.317 114.890,361.606 115.889,361.382 116.200 C 360.864 116.920,360.855 116.864,361.653 117.905 C 362.351 118.815,362.895 119.575,363.968 121.138 C 364.309 121.635,365.035 122.651,365.582 123.397 C 366.128 124.142,367.105 125.495,367.751 126.404 C 369.176 128.408,369.928 129.235,370.232 129.134 C 370.687 128.982,370.552 128.490,369.794 127.533 C 369.368 126.997,368.152 125.339,367.090 123.848 C 366.029 122.358,364.840 120.732,364.448 120.235 C 363.359 118.854,362.240 117.149,362.240 116.869 C 362.240 116.597,364.005 114.013,364.700 113.269 C 364.937 113.015,365.131 112.755,365.131 112.691 C 365.131 112.626,365.712 111.777,366.422 110.803 C 367.132 109.830,367.966 108.673,368.274 108.232 C 368.582 107.792,369.171 107.012,369.581 106.500 C 370.823 104.950,370.690 103.841,369.425 105.193 M42.738 105.189 C 42.584 105.410,42.457 105.649,42.457 105.721 C 42.457 105.792,42.126 106.563,41.722 107.433 C 41.318 108.304,40.778 109.467,40.522 110.019 C 40.266 110.570,39.628 111.915,39.105 113.008 C 38.582 114.101,37.789 115.808,37.342 116.802 C 36.377 118.948,35.166 121.543,33.971 124.029 C 31.833 128.476,31.738 128.723,32.071 129.000 C 32.479 129.338,32.646 129.107,33.701 126.739 C 34.472 125.008,35.080 123.691,36.452 120.777 C 37.295 118.988,38.186 117.078,38.434 116.531 C 38.681 115.985,39.303 114.684,39.816 113.640 C 40.329 112.597,40.927 111.337,41.146 110.840 C 43.403 105.709,43.531 105.550,44.158 107.096 C 44.349 107.565,44.931 108.844,45.453 109.937 C 46.638 112.421,48.780 117.079,48.780 117.172 C 48.780 117.210,49.180 118.053,49.668 119.045 C 50.825 121.399,50.990 121.291,46.463 121.152 C 43.337 121.056,42.837 121.079,42.634 121.323 C 42.195 121.852,42.720 121.935,46.870 121.988 L 51.009 122.042 51.801 123.668 C 54.025 128.235,54.487 129.088,54.740 129.088 C 55.207 129.088,55.154 128.463,54.589 127.312 C 53.664 125.427,52.213 122.303,52.213 122.196 C 52.213 122.140,51.815 121.269,51.329 120.261 C 50.842 119.253,50.181 117.859,49.860 117.164 C 49.539 116.468,48.921 115.147,48.487 114.228 C 46.103 109.186,45.576 108.052,44.900 106.509 C 44.134 104.760,43.367 104.292,42.738 105.189 M59.801 116.861 C 59.801 127.726,59.830 128.970,60.087 129.068 C 60.735 129.317,73.660 129.188,73.874 128.931 C 74.356 128.350,73.691 128.280,67.193 128.232 L 60.795 128.184 60.705 116.531 L 60.614 104.878 60.208 104.820 L 59.801 104.763 59.801 116.861 M193.767 106.160 C 200.322 108.608,203.144 115.670,200.137 122.104 C 199.559 123.339,196.514 126.649,195.955 126.649 C 195.819 126.649,195.614 126.762,195.500 126.900 C 195.385 127.038,195.111 127.194,194.891 127.248 C 194.670 127.302,194.002 127.528,193.406 127.751 C 192.098 128.240,182.001 128.525,181.475 128.088 C 181.110 127.786,181.073 105.778,181.436 105.627 C 181.561 105.576,184.061 105.553,186.992 105.577 L 192.322 105.620 193.767 106.160 M218.282 105.818 C 218.412 105.923,218.722 106.069,218.970 106.143 C 219.672 106.352,221.585 107.776,222.180 108.533 C 224.440 111.404,224.488 114.570,222.332 118.496 C 222.075 118.964,220.297 120.341,219.181 120.936 L 218.157 121.482 213.098 121.491 L 208.040 121.500 207.949 113.663 C 207.861 105.956,207.865 105.824,208.220 105.667 C 208.733 105.442,217.985 105.581,218.282 105.818 M274.550 105.748 C 280.573 107.021,282.788 115.038,278.293 119.299 C 276.168 121.313,274.835 121.640,269.106 121.554 L 265.492 121.500 265.445 113.652 C 265.410 107.751,265.451 105.772,265.612 105.673 C 265.999 105.434,273.356 105.496,274.550 105.748 M329.630 106.144 C 336.202 109.336,336.250 117.551,329.716 120.978 L 328.726 121.497 324.074 121.563 C 321.516 121.600,319.219 121.578,318.971 121.516 L 318.519 121.402 318.519 113.562 C 318.519 107.462,318.569 105.700,318.744 105.624 C 318.869 105.570,321.125 105.547,323.758 105.572 L 328.546 105.618 329.630 106.144 M195.935 139.485 C 189.161 140.109,184.091 146.435,184.719 153.478 C 185.738 164.889,199.917 169.484,207.374 160.819 C 213.384 153.836,210.665 143.370,201.971 140.023 C 201.201 139.727,197.901 139.217,197.471 139.328 C 197.421 139.341,196.730 139.411,195.935 139.485 M224.661 139.488 C 217.682 140.082,212.294 146.985,213.349 153.979 C 214.130 159.149,217.088 162.712,222.313 164.773 C 224.425 165.607,229.688 165.287,231.617 164.209 C 231.766 164.125,232.141 163.929,232.449 163.773 C 233.291 163.346,235.130 161.815,235.193 161.488 C 235.307 160.898,234.696 161.002,233.839 161.718 C 225.990 168.277,213.485 161.953,214.148 151.762 C 214.374 148.304,215.448 145.997,217.978 143.541 C 220.681 140.916,224.534 139.728,228.253 140.373 C 230.235 140.717,232.549 141.781,233.903 142.972 C 234.395 143.405,234.801 143.627,234.976 143.560 C 235.461 143.374,235.175 142.862,234.101 141.997 C 231.505 139.906,228.655 139.149,224.661 139.488 M125.425 140.244 C 125.263 140.444,124.246 142.545,123.174 144.896 C 122.971 145.343,122.417 146.522,121.945 147.516 C 121.472 148.509,120.905 149.729,120.685 150.226 C 120.464 150.723,120.090 151.544,119.853 152.050 C 119.616 152.556,119.422 153.065,119.422 153.179 C 119.422 153.294,119.341 153.388,119.241 153.388 C 119.142 153.388,119.061 153.470,119.061 153.572 C 119.061 153.673,118.726 154.466,118.317 155.333 C 117.909 156.201,117.330 157.439,117.030 158.085 C 116.731 158.731,116.138 159.991,115.712 160.885 C 114.309 163.831,114.163 164.232,114.454 164.343 C 114.990 164.549,115.295 164.016,117.874 158.356 C 118.690 156.565,119.139 155.598,120.056 153.659 C 121.282 151.065,122.229 149.043,122.678 148.058 C 122.964 147.429,124.279 144.630,125.414 142.231 C 125.906 141.192,126.019 141.245,126.759 142.864 C 127.502 144.486,127.947 145.446,129.000 147.696 C 130.416 150.723,130.985 151.968,130.985 152.043 C 130.985 152.085,131.429 153.015,131.971 154.112 C 133.306 156.810,133.492 156.654,129.115 156.518 C 125.901 156.418,125.445 156.438,125.232 156.695 C 124.737 157.292,125.155 157.362,129.234 157.365 C 133.842 157.368,133.494 157.262,134.247 158.900 C 136.879 164.623,137.054 164.915,137.545 164.424 C 137.695 164.274,137.674 164.069,137.463 163.637 C 137.306 163.316,137.089 162.850,136.980 162.602 C 136.872 162.353,136.363 161.256,135.849 160.163 C 134.016 156.260,133.474 155.095,133.201 154.472 C 133.049 154.124,132.402 152.742,131.764 151.400 C 130.630 149.016,130.462 148.658,129.439 146.432 C 129.165 145.836,128.425 144.261,127.795 142.933 C 127.164 141.605,126.649 140.456,126.649 140.378 C 126.649 140.019,125.694 139.914,125.425 140.244 M128.185 140.198 C 128.117 140.308,128.202 140.698,128.374 141.066 C 128.546 141.434,129.032 142.466,129.454 143.360 C 130.439 145.451,130.985 146.663,130.985 146.761 C 130.985 146.837,131.880 148.758,133.737 152.665 C 134.233 153.708,134.885 155.090,135.186 155.736 C 135.487 156.382,136.097 157.682,136.541 158.625 C 136.986 159.567,137.421 160.502,137.509 160.702 C 137.597 160.902,137.741 161.188,137.830 161.337 C 137.918 161.486,138.135 161.933,138.310 162.331 C 138.990 163.870,139.284 164.320,139.646 164.376 C 140.191 164.460,140.122 164.035,139.319 162.351 C 138.934 161.545,138.399 160.397,138.129 159.801 C 137.859 159.205,137.328 158.067,136.950 157.272 C 136.571 156.477,135.918 155.095,135.498 154.201 C 135.079 153.306,134.339 151.734,133.854 150.706 C 133.369 149.678,132.972 148.807,132.972 148.770 C 132.972 148.733,132.516 147.745,131.958 146.574 C 131.400 145.403,130.624 143.753,130.232 142.909 C 128.951 140.142,128.548 139.609,128.185 140.198 M142.764 140.235 C 142.407 140.592,142.456 164.107,142.814 164.405 C 143.303 164.810,154.285 164.546,155.661 164.096 C 163.170 161.641,166.564 153.543,163.015 146.549 C 162.072 144.689,158.759 141.463,157.792 141.463 C 157.720 141.463,157.533 141.358,157.376 141.230 C 157.027 140.944,156.198 140.660,154.652 140.298 C 153.125 139.941,143.112 139.887,142.764 140.235 M164.956 140.425 C 164.959 140.648,165.234 141.603,165.568 142.547 C 167.301 147.452,167.691 148.521,168.469 150.497 C 168.734 151.171,169.265 152.650,170.187 155.285 C 170.500 156.179,170.825 157.073,170.910 157.272 C 170.995 157.471,171.280 158.243,171.544 158.988 C 171.968 160.187,172.136 160.637,172.722 162.150 C 172.799 162.349,172.999 162.898,173.167 163.372 C 173.726 164.942,174.579 164.909,175.122 163.296 C 175.300 162.765,175.559 162.046,175.697 161.698 C 176.296 160.189,178.324 154.597,178.941 152.755 C 179.174 152.060,179.446 151.287,179.545 151.039 C 179.708 150.630,180.126 149.549,180.488 148.600 C 180.564 148.401,180.828 147.669,181.076 146.974 C 181.932 144.572,182.696 142.456,182.838 142.096 C 183.477 140.478,183.499 140.018,182.939 140.018 C 182.600 140.018,182.387 140.414,181.846 142.056 C 181.293 143.732,180.209 146.753,179.174 149.503 C 178.725 150.696,178.192 152.159,177.989 152.755 C 177.787 153.351,177.245 154.855,176.786 156.098 C 176.326 157.340,175.710 159.047,175.416 159.892 C 175.123 160.736,174.761 161.683,174.614 161.997 C 174.466 162.310,174.345 162.655,174.345 162.764 C 174.345 163.669,173.656 162.367,172.877 159.989 C 172.680 159.389,172.442 158.757,172.348 158.584 C 172.254 158.412,172.177 158.193,172.177 158.099 C 172.177 158.005,172.084 157.699,171.969 157.419 C 171.772 156.936,171.571 156.387,170.202 152.575 C 169.520 150.675,169.434 150.452,169.040 149.542 C 168.878 149.166,168.744 148.742,168.744 148.600 C 168.744 148.458,168.629 148.074,168.488 147.748 C 167.923 146.436,167.674 145.779,166.758 143.180 C 166.232 141.689,165.723 140.368,165.625 140.244 C 165.338 139.878,164.950 139.983,164.956 140.425 M247.940 140.156 C 247.825 140.229,247.366 141.061,246.921 142.005 C 245.131 145.797,244.444 147.278,244.444 147.345 C 244.444 147.384,243.887 148.577,243.206 149.995 C 241.181 154.213,240.650 155.342,240.650 155.436 C 240.650 155.486,240.132 156.610,239.498 157.935 C 238.864 159.259,238.050 160.994,237.688 161.789 C 237.327 162.584,236.951 163.375,236.853 163.548 C 236.555 164.075,236.644 164.409,237.082 164.400 C 237.416 164.394,237.625 164.096,238.254 162.729 C 238.675 161.814,239.394 160.253,239.852 159.259 C 240.310 158.266,240.851 157.087,241.055 156.640 C 241.259 156.192,241.893 154.851,242.463 153.659 C 243.033 152.466,243.712 151.023,243.972 150.452 C 244.905 148.401,245.334 147.480,246.473 145.077 C 247.110 143.735,247.747 142.373,247.888 142.050 C 248.316 141.077,248.327 141.090,250.025 144.715 C 250.607 145.958,251.410 147.706,251.810 148.600 C 252.813 150.846,253.751 152.851,254.610 154.587 C 255.657 156.702,255.805 156.612,251.456 156.504 C 248.144 156.422,247.753 156.444,247.523 156.721 C 247.065 157.273,247.637 157.357,251.865 157.359 L 255.943 157.362 256.742 159.124 C 258.666 163.362,259.235 164.408,259.615 164.408 C 260.128 164.408,260.080 164.044,259.368 162.542 C 259.031 161.830,258.511 160.718,258.213 160.072 C 257.915 159.426,257.215 157.943,256.658 156.777 C 256.101 155.610,255.646 154.613,255.646 154.562 C 255.646 154.510,255.107 153.351,254.449 151.986 C 253.791 150.620,253.110 149.178,252.937 148.780 C 252.170 147.019,251.811 146.232,251.660 145.980 C 251.571 145.831,251.316 145.303,251.094 144.806 C 249.163 140.491,248.635 139.713,247.940 140.156 M250.466 140.305 C 250.404 140.466,250.676 141.238,251.086 142.066 C 251.825 143.557,252.739 145.499,253.482 147.154 C 253.704 147.651,254.283 148.900,254.766 149.930 C 255.250 150.960,255.646 151.826,255.646 151.854 C 255.646 151.883,256.122 152.910,256.705 154.137 C 257.288 155.364,257.991 156.856,258.268 157.453 C 260.737 162.768,261.605 164.408,261.950 164.408 C 262.540 164.408,262.515 164.203,261.728 162.595 C 261.314 161.750,260.740 160.531,260.451 159.888 C 259.821 158.482,258.753 156.202,257.404 153.388 C 256.287 151.056,255.285 148.878,255.285 148.782 C 255.285 148.747,254.512 147.122,253.568 145.172 C 252.624 143.221,251.852 141.545,251.852 141.448 C 251.852 140.682,250.689 139.723,250.466 140.305 M259.848 140.137 C 259.686 140.203,259.674 140.323,259.807 140.571 C 259.976 140.886,260.266 140.918,263.464 140.963 L 266.938 141.012 267.028 152.695 C 267.118 164.387,267.143 164.838,267.656 164.412 C 267.897 164.212,267.931 162.764,267.931 152.662 C 267.931 142.323,267.961 141.129,268.217 141.031 C 268.374 140.971,269.992 140.921,271.811 140.921 C 275.183 140.921,275.635 140.824,275.238 140.182 C 275.134 140.014,260.262 139.970,259.848 140.137 M278.241 140.357 C 277.981 140.843,278.000 164.041,278.260 164.355 C 278.514 164.660,291.418 164.698,291.984 164.396 C 293.105 163.796,292.120 163.686,285.625 163.686 C 280.891 163.686,279.301 163.631,279.199 163.467 C 278.988 163.125,278.940 153.387,279.147 152.999 C 279.315 152.687,279.641 152.665,284.176 152.665 C 288.084 152.665,289.066 152.616,289.233 152.415 C 289.586 151.989,289.081 151.942,284.093 151.942 C 279.737 151.942,279.312 151.915,279.160 151.626 C 278.925 151.178,278.935 141.433,279.171 141.147 C 279.314 140.974,280.834 140.921,285.637 140.921 C 292.097 140.921,293.108 140.807,292.129 140.188 C 291.552 139.823,278.442 139.983,278.241 140.357 M200.110 140.481 C 210.643 142.924,213.185 156.119,204.321 162.330 C 203.553 162.869,202.693 163.364,202.411 163.432 C 202.128 163.499,201.816 163.616,201.716 163.691 C 201.249 164.044,199.103 164.408,197.501 164.407 C 191.985 164.403,187.187 160.548,185.807 155.014 C 185.530 153.902,185.461 150.377,185.704 149.737 C 185.791 149.509,185.962 148.997,186.085 148.600 C 186.792 146.316,189.448 142.890,191.238 141.953 C 192.231 141.432,192.856 141.167,193.767 140.878 C 194.264 140.721,194.914 140.512,195.212 140.414 C 196.067 140.135,198.776 140.172,200.110 140.481 M155.827 141.528 C 165.796 144.947,166.137 158.560,156.362 162.883 C 154.491 163.711,144.984 164.313,143.800 163.679 C 143.437 163.485,143.227 141.386,143.585 141.028 C 144.007 140.606,154.372 141.029,155.827 141.528 " stroke="none" fill="#dbdbdb" fill-rule="evenodd"></path></g></svg>