<?xml version="1.0" standalone="no"?>
<!DOCTYPE svg PUBLIC "-//W3C//DTD SVG 20010904//EN"
 "http://www.w3.org/TR/2001/REC-SVG-20010904/DTD/svg10.dtd">
<svg version="1.0" xmlns="http://www.w3.org/2000/svg"
 width="266.000000pt" height="210.000000pt" viewBox="0 0 266.000000 210.000000"
 preserveAspectRatio="xMidYMid meet">

<g transform="translate(0.000000,210.000000) scale(0.100000,-0.100000)"
fill="#000000" stroke="none">
<path d="M0 1050 l0 -1050 1330 0 1330 0 0 1050 0 1050 -1330 0 -1330 0 0
-1050z m1540 815 c303 -71 547 -300 639 -599 39 -126 48 -241 29 -370 -30
-207 -101 -349 -248 -497 -103 -103 -183 -156 -316 -207 -169 -65 -391 -70
-564 -13 -232 76 -411 229 -521 443 -67 133 -84 209 -84 388 0 132 4 167 23
235 113 393 477 658 877 640 55 -3 129 -12 165 -20z"/>
<path d="M1205 1836 c-342 -59 -613 -320 -681 -659 -20 -98 -15 -292 10 -382
34 -121 110 -257 195 -348 165 -177 371 -267 612 -267 281 0 516 123 690 360
42 57 87 153 115 247 23 76 27 107 27 223 1 158 -12 218 -77 355 -87 183 -215
313 -398 401 -143 70 -334 97 -493 70z m230 -388 c127 -272 322 -690 374 -802
32 -70 33 -83 7 -73 -13 5 -89 153 -147 285 l-14 32 -207 0 c-115 0 -208 4
-208 8 0 27 30 32 207 32 101 0 183 2 183 4 0 8 -328 716 -336 725 -2 2 -13
-18 -25 -45 -20 -46 -68 -149 -245 -526 -42 -90 -108 -230 -146 -313 -38 -82
-75 -161 -83 -175 -14 -25 -45 -40 -45 -21 0 5 43 100 95 211 52 111 95 203
95 205 0 1 26 58 59 126 70 148 174 370 229 492 35 74 44 87 65 87 22 0 36
-24 142 -252z m-2 215 c8 -21 73 -162 144 -313 137 -290 356 -758 361 -772 2
-4 -5 -8 -16 -8 -15 0 -28 18 -52 67 -40 85 -239 509 -273 583 -116 254 -149
324 -175 376 -43 87 -47 104 -24 104 13 0 24 -13 35 -37z"/>
</g>
</svg>
