<svg id="svg" version="1.1" xmlns="http://www.w3.org/2000/svg" xmlns:xlink="http://www.w3.org/1999/xlink" width="400" height="315.9159159159159" viewBox="0, 0, 400,315.9159159159159"><g id="svgg"><path id="path0" d="M192.885 32.517 C 190.101 32.635,187.672 32.826,187.487 32.940 C 187.303 33.054,185.528 33.303,183.544 33.494 C 181.560 33.684,179.297 34.038,178.515 34.280 C 177.733 34.522,176.240 34.817,175.197 34.935 C 174.155 35.054,173.058 35.277,172.761 35.431 C 172.463 35.586,171.255 35.913,170.075 36.159 C 167.593 36.675,164.319 37.600,161.611 38.550 C 160.569 38.916,159.147 39.357,158.452 39.531 C 157.757 39.704,156.904 40.029,156.556 40.252 C 156.209 40.476,155.498 40.760,154.976 40.885 C 154.455 41.009,153.389 41.401,152.607 41.755 C 150.840 42.555,149.768 43.020,147.551 43.949 C 146.596 44.349,145.589 44.861,145.315 45.087 C 145.040 45.313,144.712 45.498,144.584 45.498 C 144.354 45.498,140.879 47.167,139.968 47.715 C 139.708 47.872,137.930 48.891,136.019 49.980 C 126.706 55.286,116.866 62.893,108.737 71.071 C 104.439 75.395,98.455 82.306,96.682 84.994 C 96.422 85.389,95.906 86.083,95.537 86.537 C 94.775 87.473,90.047 94.445,90.047 94.632 C 90.047 94.700,89.607 95.408,89.068 96.206 C 87.767 98.133,86.387 100.691,83.867 105.845 C 80.899 111.916,80.672 112.405,79.770 114.692 C 79.325 115.821,78.827 117.030,78.664 117.378 C 78.148 118.474,76.114 124.583,75.770 126.066 C 75.589 126.848,75.315 127.644,75.162 127.835 C 75.009 128.026,74.744 128.951,74.575 129.889 C 74.405 130.828,74.058 132.306,73.803 133.175 C 71.622 140.612,70.809 162.418,72.012 181.234 C 72.431 187.788,73.823 196.319,75.050 199.842 C 75.291 200.537,75.626 201.675,75.793 202.370 C 76.439 205.056,79.966 214.295,80.918 215.798 C 81.084 216.058,81.305 216.528,81.409 216.842 C 81.768 217.917,86.084 226.226,87.621 228.800 C 88.230 229.820,90.282 233.260,91.153 234.722 C 91.327 235.014,91.649 235.460,91.869 235.715 C 92.088 235.969,92.594 236.675,92.993 237.283 C 99.154 246.682,109.489 257.971,118.799 265.474 C 122.345 268.331,131.108 274.532,132.701 275.312 C 132.962 275.439,133.695 275.857,134.329 276.239 C 139.004 279.059,150.045 284.671,150.928 284.678 C 151.069 284.679,151.562 284.877,152.023 285.117 C 152.484 285.358,153.408 285.733,154.077 285.950 C 154.745 286.168,155.573 286.539,155.915 286.775 C 156.258 287.011,156.827 287.209,157.179 287.215 C 157.532 287.220,158.389 287.500,159.084 287.836 C 159.779 288.171,160.639 288.451,160.995 288.457 C 161.352 288.463,161.801 288.626,161.994 288.818 C 162.187 289.011,163.104 289.363,164.032 289.599 C 166.498 290.227,169.290 290.956,171.090 291.441 C 173.042 291.967,175.508 292.476,178.199 292.909 C 179.329 293.090,181.527 293.455,183.084 293.720 C 191.486 295.146,213.686 295.130,220.379 293.693 C 221.596 293.432,223.155 293.215,223.844 293.212 C 224.534 293.209,226.240 292.937,227.636 292.607 C 229.032 292.277,230.885 291.858,231.754 291.676 C 235.527 290.885,240.921 289.373,241.967 288.813 C 242.322 288.623,242.944 288.468,243.349 288.468 C 243.754 288.468,244.616 288.183,245.264 287.836 C 245.913 287.488,246.696 287.204,247.006 287.204 C 247.315 287.204,247.849 287.011,248.192 286.775 C 248.535 286.539,249.362 286.168,250.031 285.950 C 250.699 285.733,251.623 285.358,252.084 285.117 C 252.545 284.877,253.033 284.679,253.169 284.678 C 253.833 284.673,262.575 280.402,266.667 278.084 C 280.652 270.159,295.710 256.629,308.072 240.877 C 311.525 236.477,316.686 228.418,319.074 223.697 C 319.646 222.567,320.239 221.430,320.393 221.169 C 320.830 220.431,322.907 215.809,322.907 215.575 C 322.907 215.460,323.170 214.787,323.492 214.081 C 324.015 212.930,324.961 210.414,326.052 207.267 C 327.002 204.528,328.552 199.082,328.975 196.998 C 329.152 196.130,329.483 194.850,329.712 194.155 C 329.940 193.460,330.221 192.109,330.336 191.153 C 330.451 190.197,330.738 188.705,330.974 187.836 C 331.210 186.967,331.494 185.403,331.604 184.360 C 331.715 183.318,332.002 181.327,332.242 179.937 C 332.990 175.616,333.729 163.264,333.491 159.084 C 333.151 153.139,332.469 145.414,332.253 145.065 C 332.145 144.890,331.914 143.566,331.738 142.121 C 331.563 140.676,331.272 139.068,331.092 138.547 C 330.911 138.025,330.566 136.603,330.325 135.387 C 330.084 134.171,329.585 132.109,329.216 130.806 C 328.847 129.502,328.350 127.725,328.111 126.856 C 327.397 124.256,326.693 122.171,326.208 121.222 C 325.956 120.730,325.750 120.137,325.750 119.903 C 325.750 119.521,324.151 115.307,323.541 114.080 C 323.405 113.808,322.978 112.804,322.592 111.848 C 319.535 104.295,312.449 92.058,306.949 84.834 C 306.684 84.487,305.882 83.420,305.166 82.464 C 304.450 81.509,303.706 80.585,303.512 80.411 C 303.318 80.237,302.130 78.861,300.872 77.353 C 297.857 73.738,291.543 67.416,287.992 64.455 C 286.429 63.152,285.008 61.927,284.834 61.733 C 284.507 61.368,281.991 59.403,280.430 58.294 C 279.941 57.946,279.168 57.370,278.712 57.013 C 278.256 56.656,276.959 55.745,275.829 54.989 C 274.700 54.233,273.705 53.530,273.618 53.427 C 273.531 53.323,273.078 53.025,272.610 52.765 C 272.143 52.504,269.797 51.152,267.397 49.759 C 261.728 46.471,252.737 42.022,251.760 42.022 C 251.521 42.022,251.045 41.837,250.702 41.611 C 250.153 41.248,247.647 40.248,244.234 39.028 C 242.534 38.421,237.035 36.823,232.859 35.723 C 232.077 35.517,230.143 35.151,228.560 34.910 C 226.978 34.668,225.059 34.321,224.295 34.137 C 223.532 33.954,221.272 33.668,219.273 33.503 C 217.275 33.337,214.716 33.066,213.586 32.900 C 210.712 32.477,198.931 32.259,192.885 32.517 M213.428 39.017 C 215.166 39.257,217.654 39.539,218.957 39.646 C 220.261 39.752,222.038 40.035,222.907 40.275 C 223.776 40.515,225.340 40.805,226.382 40.921 C 227.425 41.036,228.989 41.320,229.858 41.552 C 230.727 41.783,232.646 42.284,234.123 42.664 C 239.263 43.988,241.025 44.542,246.362 46.509 C 249.433 47.641,252.753 49.114,257.504 51.451 C 263.080 54.194,269.758 58.134,273.920 61.137 C 275.365 62.180,276.848 63.243,277.215 63.499 C 282.000 66.839,290.670 74.789,295.170 79.962 C 297.975 83.187,300.846 86.730,301.934 88.310 C 302.532 89.179,303.288 90.245,303.612 90.679 C 304.509 91.879,307.362 96.311,308.618 98.456 C 309.013 99.132,309.629 100.171,309.985 100.766 C 310.342 101.362,311.131 102.783,311.740 103.926 C 312.348 105.068,312.973 106.216,313.127 106.477 C 313.407 106.949,316.449 113.387,317.530 115.798 C 317.842 116.493,318.468 117.870,318.922 118.859 C 319.376 119.847,319.747 120.850,319.747 121.086 C 319.747 121.323,319.879 121.652,320.041 121.817 C 320.362 122.145,320.860 123.473,322.286 127.804 C 324.264 133.816,325.286 138.209,325.740 142.654 C 325.917 144.392,326.199 146.880,326.366 148.183 C 326.770 151.327,326.779 175.728,326.379 179.147 C 326.205 180.624,325.919 183.183,325.741 184.834 C 325.564 186.485,325.220 188.404,324.977 189.100 C 324.734 189.795,324.444 190.861,324.332 191.469 C 324.221 192.077,323.933 193.215,323.692 193.997 C 323.452 194.779,322.947 196.485,322.570 197.788 C 322.193 199.092,321.524 201.224,321.082 202.528 C 320.640 203.831,320.086 205.466,319.850 206.161 C 319.614 206.856,319.152 208.065,318.823 208.847 C 318.494 209.629,317.915 211.051,317.537 212.006 C 317.159 212.962,316.561 214.384,316.207 215.166 C 314.462 219.028,313.365 221.372,313.104 221.801 C 312.945 222.062,312.535 222.844,312.191 223.539 C 311.848 224.234,311.063 225.656,310.446 226.698 C 309.830 227.741,309.120 229.032,308.868 229.567 C 308.616 230.102,308.188 230.724,307.917 230.949 C 307.646 231.173,307.425 231.488,307.425 231.647 C 307.425 232.028,306.600 233.177,303.126 237.636 C 294.352 248.898,283.913 259.222,274.882 265.570 C 270.091 268.936,266.088 271.519,263.589 272.855 C 262.067 273.669,260.749 274.446,260.660 274.583 C 260.572 274.720,260.115 274.928,259.646 275.045 C 259.177 275.163,258.636 275.450,258.443 275.682 C 258.250 275.915,257.685 276.194,257.188 276.303 C 256.691 276.413,256.114 276.706,255.907 276.956 C 255.700 277.205,255.380 277.409,255.195 277.409 C 254.882 277.409,253.835 277.854,250.676 279.330 C 249.962 279.664,249.202 279.937,248.987 279.937 C 248.772 279.937,248.219 280.133,247.758 280.373 C 246.170 281.200,242.640 282.464,241.921 282.464 C 241.525 282.464,241.057 282.608,240.881 282.784 C 240.378 283.287,235.053 284.724,229.226 285.929 C 227.662 286.252,225.814 286.668,225.118 286.853 C 224.423 287.038,223.215 287.194,222.433 287.201 C 221.651 287.208,220.092 287.430,218.968 287.695 C 214.171 288.825,191.180 288.843,184.202 287.721 C 182.551 287.456,180.276 287.090,179.147 286.909 C 176.682 286.514,172.066 285.527,169.668 284.882 C 168.712 284.625,166.832 284.125,165.488 283.770 C 164.145 283.416,162.768 282.977,162.429 282.795 C 162.089 282.613,161.551 282.464,161.233 282.464 C 160.914 282.464,160.159 282.199,159.553 281.875 C 158.947 281.550,157.954 281.177,157.346 281.044 C 156.738 280.912,155.960 280.609,155.617 280.370 C 155.274 280.132,154.798 279.937,154.559 279.937 C 154.320 279.937,153.605 279.707,152.970 279.426 C 151.771 278.895,147.348 276.848,145.972 276.188 C 144.453 275.459,141.372 273.743,139.179 272.406 C 137.962 271.664,136.682 270.890,136.335 270.685 C 127.459 265.457,118.344 257.806,108.671 247.465 C 106.149 244.768,100.190 237.173,98.734 234.800 C 98.559 234.515,97.762 233.286,96.962 232.070 C 96.163 230.853,95.240 229.377,94.911 228.790 C 93.971 227.111,93.681 226.639,93.310 226.179 C 93.004 225.801,90.699 221.477,88.617 217.378 C 87.914 215.993,86.972 213.952,85.701 211.058 C 85.357 210.276,84.844 209.118,84.560 208.483 C 84.276 207.849,84.044 207.203,84.044 207.049 C 84.044 206.895,83.565 205.616,82.980 204.207 C 82.394 202.797,81.813 201.096,81.687 200.427 C 81.562 199.758,81.334 199.057,81.179 198.870 C 80.925 198.562,80.644 197.494,79.648 193.049 C 78.893 189.680,78.331 185.980,78.038 182.454 C 77.865 180.374,77.588 177.180,77.422 175.355 C 77.028 171.017,77.026 153.433,77.419 150.400 C 77.588 149.100,77.866 146.541,78.037 144.713 C 78.351 141.362,78.847 138.661,79.962 134.243 C 80.295 132.919,80.570 131.568,80.571 131.242 C 80.572 130.915,80.780 130.251,81.033 129.766 C 81.286 129.281,81.630 128.214,81.797 127.396 C 81.965 126.578,82.478 124.913,82.938 123.697 C 83.398 122.480,83.920 120.987,84.100 120.379 C 84.279 119.771,84.535 119.131,84.668 118.957 C 84.801 118.784,85.089 118.073,85.308 117.378 C 85.527 116.682,85.813 115.972,85.942 115.798 C 86.072 115.624,86.284 115.126,86.413 114.692 C 86.696 113.740,91.666 103.678,92.733 101.896 C 93.150 101.201,93.644 100.348,93.832 100.000 C 94.808 98.195,99.257 91.442,100.620 89.696 C 100.974 89.243,101.477 88.541,101.738 88.137 C 101.998 87.733,102.718 86.825,103.336 86.118 C 103.955 85.412,105.323 83.768,106.376 82.464 C 108.719 79.566,116.001 72.146,118.799 69.806 C 119.929 68.861,120.995 67.930,121.169 67.735 C 121.433 67.440,123.142 66.106,127.172 63.049 C 129.016 61.650,129.597 61.236,132.003 59.600 C 133.443 58.621,134.741 57.820,134.887 57.820 C 135.032 57.820,135.336 57.598,135.560 57.328 C 135.785 57.057,136.407 56.631,136.942 56.382 C 137.477 56.133,138.910 55.355,140.126 54.654 C 141.343 53.952,142.694 53.207,143.128 52.996 C 143.562 52.786,144.113 52.428,144.351 52.200 C 144.589 51.972,145.190 51.704,145.687 51.605 C 146.183 51.506,146.752 51.228,146.951 50.989 C 147.150 50.749,147.443 50.553,147.603 50.553 C 147.763 50.553,148.776 50.140,149.855 49.636 C 153.394 47.981,155.523 47.077,155.884 47.075 C 156.080 47.074,156.667 46.851,157.188 46.579 C 159.896 45.166,170.878 41.860,175.987 40.918 C 177.291 40.678,178.826 40.339,179.399 40.164 C 179.973 39.989,181.466 39.753,182.717 39.641 C 183.968 39.528,185.561 39.286,186.256 39.104 C 189.359 38.291,207.728 38.232,213.428 39.017 M191.542 61.464 C 190.180 62.631,187.589 66.922,186.113 70.458 C 185.932 70.893,185.646 71.461,185.477 71.722 C 185.308 71.983,184.723 73.191,184.177 74.408 C 182.610 77.895,181.687 79.903,180.402 82.622 C 179.195 85.178,178.050 87.657,176.282 91.548 C 174.773 94.870,174.016 96.483,173.724 96.998 C 173.576 97.259,173.368 97.686,173.262 97.946 C 172.949 98.709,171.878 101.084,170.696 103.633 C 170.092 104.937,169.269 106.714,168.867 107.583 C 166.503 112.697,163.736 118.623,162.154 121.959 C 161.453 123.436,160.215 126.066,159.403 127.804 C 158.590 129.542,157.522 131.817,157.030 132.859 C 155.905 135.241,153.449 140.478,152.288 142.970 C 151.802 144.013,150.593 146.572,149.600 148.657 C 146.162 155.879,145.387 157.516,144.145 160.190 C 143.458 161.667,142.577 163.586,142.188 164.455 C 141.799 165.324,140.989 167.101,140.389 168.404 C 139.789 169.708,139.105 171.201,138.871 171.722 C 136.746 176.437,135.328 179.490,132.856 184.676 C 132.110 186.240,131.050 188.515,130.500 189.731 C 129.951 190.948,129.028 192.938,128.450 194.155 C 127.165 196.859,125.822 199.755,124.495 202.686 C 123.944 203.902,123.090 205.750,122.599 206.793 C 119.344 213.698,118.799 214.877,118.799 215.012 C 118.799 215.096,118.284 216.266,117.654 217.614 C 112.563 228.505,112.125 230.016,114.056 230.016 C 117.022 230.016,118.939 227.414,124.183 216.272 C 125.083 214.360,126.498 211.374,127.328 209.637 C 128.926 206.289,130.370 203.173,131.647 200.316 C 132.075 199.360,132.558 198.365,132.723 198.104 C 132.887 197.844,133.104 197.417,133.205 197.156 C 133.407 196.637,134.314 194.640,135.791 191.469 C 136.316 190.340,137.342 188.136,138.069 186.572 C 138.796 185.008,139.791 182.875,140.278 181.833 C 140.766 180.790,141.826 178.515,142.635 176.777 C 144.790 172.147,145.144 171.392,146.707 168.088 C 147.488 166.438,148.650 163.949,149.289 162.559 C 149.928 161.169,150.917 159.036,151.487 157.820 C 153.808 152.866,154.485 151.401,155.429 149.289 C 155.973 148.073,156.556 146.864,156.725 146.603 C 156.894 146.343,157.181 145.774,157.363 145.340 C 157.746 144.428,158.246 143.344,160.495 138.547 C 161.391 136.635,162.488 134.289,162.932 133.333 C 163.376 132.378,164.210 130.600,164.785 129.384 C 165.360 128.167,166.394 125.964,167.083 124.487 C 167.773 123.009,169.076 120.237,169.981 118.325 C 170.885 116.414,171.914 114.210,172.268 113.428 C 172.622 112.646,173.446 110.869,174.098 109.479 C 174.751 108.088,175.876 105.671,176.599 104.107 C 177.322 102.543,178.050 101.051,178.216 100.790 C 178.383 100.529,178.597 100.103,178.692 99.842 C 178.786 99.581,179.131 98.799,179.457 98.104 C 179.782 97.409,180.430 95.987,180.896 94.945 C 181.363 93.902,182.207 92.054,182.772 90.837 C 183.338 89.621,184.114 87.915,184.498 87.046 C 184.881 86.177,185.327 85.253,185.489 84.992 C 185.651 84.731,185.933 84.163,186.115 83.728 C 186.297 83.294,186.708 82.370,187.027 81.675 C 187.909 79.752,189.078 77.175,190.180 74.724 C 190.726 73.507,191.312 72.299,191.480 72.038 C 191.649 71.777,191.933 71.209,192.113 70.774 C 193.933 66.363,194.549 66.320,196.566 70.458 C 198.414 74.249,201.751 81.232,202.607 83.096 C 202.965 83.878,203.379 84.731,203.526 84.992 C 203.673 85.253,203.943 85.821,204.127 86.256 C 204.441 87.000,204.755 87.685,206.737 91.943 C 207.182 92.899,207.696 94.036,207.880 94.471 C 208.063 94.905,208.347 95.474,208.511 95.735 C 208.674 95.995,209.189 97.062,209.655 98.104 C 210.464 99.915,211.260 101.627,213.912 107.267 C 214.566 108.657,215.625 110.932,216.266 112.322 C 216.907 113.712,217.900 115.845,218.473 117.062 C 219.723 119.716,220.757 121.941,222.216 125.118 C 222.815 126.422,223.765 128.483,224.327 129.700 C 224.890 130.916,225.773 132.836,226.290 133.965 C 226.807 135.095,227.572 136.765,227.991 137.678 C 228.409 138.590,229.122 140.154,229.574 141.153 C 230.382 142.941,230.622 143.461,233.112 148.815 C 233.799 150.292,234.749 152.354,235.223 153.397 C 236.155 155.446,237.548 158.462,238.724 160.979 C 239.131 161.848,240.050 163.910,240.766 165.561 C 241.483 167.212,242.465 169.415,242.948 170.458 C 244.794 174.445,244.915 174.800,244.554 175.162 C 244.326 175.389,240.562 175.585,233.557 175.734 C 190.364 176.649,193.063 176.553,190.521 177.266 C 187.361 178.152,185.656 180.130,187.296 181.007 C 188.284 181.536,204.190 182.021,226.790 182.212 L 248.682 182.397 249.302 183.184 C 249.642 183.617,249.921 184.205,249.921 184.490 C 249.921 184.776,250.118 185.290,250.358 185.633 C 250.598 185.976,251.182 187.181,251.655 188.310 C 252.128 189.439,253.010 191.430,253.614 192.733 C 254.218 194.036,254.976 195.671,255.298 196.367 C 255.621 197.062,256.666 199.265,257.622 201.264 C 258.578 203.262,259.511 205.253,259.695 205.687 C 259.879 206.122,260.151 206.690,260.298 206.951 C 260.445 207.212,260.730 207.745,260.930 208.136 C 261.131 208.527,261.431 209.096,261.598 209.400 C 261.764 209.704,262.743 211.659,263.774 213.744 C 264.805 215.829,266.018 218.175,266.470 218.957 C 266.921 219.739,267.462 220.735,267.671 221.169 C 269.990 225.981,272.530 229.501,273.934 229.848 C 275.988 230.357,276.259 228.373,274.645 224.645 C 273.282 221.497,272.027 218.678,270.777 215.956 C 270.218 214.739,269.405 212.962,268.971 212.006 C 268.536 211.051,267.637 209.131,266.974 207.741 C 266.311 206.351,265.316 204.218,264.764 203.002 C 262.827 198.733,261.864 196.678,261.579 196.209 C 261.421 195.948,261.204 195.521,261.096 195.261 C 260.989 195.000,260.405 193.720,259.800 192.417 C 259.194 191.114,258.279 189.123,257.766 187.994 C 257.253 186.864,256.699 185.727,256.535 185.466 C 256.371 185.205,256.157 184.779,256.060 184.518 C 255.963 184.258,255.617 183.476,255.292 182.780 C 254.966 182.085,254.207 180.450,253.605 179.147 C 251.010 173.531,249.810 170.954,248.824 168.878 C 248.246 167.662,247.457 165.956,247.070 165.087 C 246.416 163.618,245.400 161.434,242.805 155.924 C 242.232 154.708,241.174 152.433,240.455 150.869 C 238.374 146.346,237.839 145.213,237.550 144.708 C 237.401 144.447,237.191 144.021,237.083 143.760 C 236.378 142.057,232.858 134.496,232.523 133.965 C 232.358 133.705,232.141 133.278,232.040 133.017 C 231.851 132.530,231.219 131.144,229.304 127.014 C 228.700 125.711,227.913 124.005,227.555 123.223 C 227.197 122.441,226.201 120.308,225.342 118.483 C 224.483 116.659,223.398 114.313,222.929 113.270 C 222.461 112.227,221.944 111.161,221.780 110.900 C 221.615 110.640,221.398 110.213,221.297 109.953 C 221.095 109.433,220.188 107.437,218.712 104.265 C 218.186 103.136,217.160 100.932,216.432 99.368 C 215.704 97.804,214.423 95.103,213.585 93.365 C 212.747 91.627,211.612 89.210,211.062 87.994 C 208.176 81.614,202.184 69.423,200.346 66.193 C 197.104 60.494,194.383 59.032,191.542 61.464 M208.738 60.925 C 207.959 61.786,208.445 64.726,209.782 67.241 C 209.938 67.533,210.348 68.412,210.694 69.194 C 211.320 70.611,213.660 75.558,216.970 82.464 C 217.928 84.463,219.280 87.306,219.975 88.784 C 220.671 90.261,221.366 91.682,221.521 91.943 C 221.676 92.204,221.952 92.773,222.134 93.207 C 222.555 94.209,223.459 96.196,224.868 99.210 C 225.477 100.513,226.237 102.148,226.557 102.844 C 227.982 105.935,229.789 109.874,230.181 110.742 C 230.416 111.264,231.101 112.757,231.703 114.060 C 232.305 115.363,233.152 117.212,233.586 118.167 C 234.019 119.123,234.830 120.900,235.386 122.117 C 236.387 124.304,236.675 124.926,239.115 130.174 C 239.802 131.651,240.752 133.712,241.226 134.755 C 243.130 138.942,243.993 140.781,244.266 141.232 C 244.424 141.493,244.642 141.919,244.750 142.180 C 245.160 143.172,246.575 146.248,248.019 149.289 C 249.845 153.135,251.441 156.530,253.292 160.506 C 254.061 162.156,254.961 164.076,255.292 164.771 C 255.869 165.980,257.756 170.027,259.788 174.408 C 260.311 175.537,261.277 177.599,261.933 178.989 C 262.590 180.379,263.653 182.654,264.295 184.044 C 264.938 185.434,266.072 187.852,266.815 189.415 C 267.559 190.979,268.695 193.397,269.341 194.787 C 270.592 197.483,271.901 200.278,273.707 204.107 C 274.322 205.411,275.417 207.757,276.140 209.321 C 280.006 217.676,282.778 223.342,283.099 223.540 C 283.271 223.647,283.412 223.940,283.412 224.193 C 283.412 224.445,283.929 225.396,284.560 226.307 C 286.982 229.800,288.554 230.769,290.287 229.836 C 291.491 229.188,291.431 228.099,290.071 225.908 C 289.909 225.648,289.463 224.724,289.079 223.855 C 288.696 222.986,287.921 221.280,287.357 220.063 C 286.793 218.847,286.043 217.212,285.691 216.430 C 285.339 215.648,284.384 213.586,283.570 211.848 C 281.642 207.735,280.348 204.957,279.446 203.002 C 279.046 202.133,278.085 200.071,277.311 198.420 C 276.537 196.769,275.518 194.566,275.045 193.523 C 274.126 191.495,273.558 190.270,271.237 185.308 C 270.424 183.570,269.333 181.224,268.814 180.095 C 268.294 178.965,267.740 177.792,267.584 177.488 C 266.801 175.971,265.233 172.644,261.441 164.455 C 261.038 163.586,260.044 161.453,259.231 159.716 C 258.418 157.978,257.327 155.632,256.808 154.502 C 256.288 153.373,255.734 152.235,255.576 151.975 C 255.418 151.714,255.201 151.288,255.094 151.027 C 254.987 150.766,254.264 149.202,253.488 147.551 C 252.712 145.900,251.610 143.555,251.039 142.338 C 250.468 141.122,249.498 139.060,248.884 137.757 C 248.269 136.453,247.173 134.107,246.447 132.543 C 245.722 130.979,244.584 128.562,243.919 127.172 C 243.254 125.782,242.254 123.649,241.698 122.433 C 240.525 119.866,238.330 115.179,236.815 112.006 C 236.235 110.790,235.171 108.515,234.451 106.951 C 232.951 103.691,232.500 102.721,230.557 98.578 C 229.782 96.927,228.689 94.581,228.128 93.365 C 227.566 92.148,226.570 90.016,225.913 88.626 C 224.552 85.746,223.555 83.584,222.124 80.411 C 221.575 79.194,220.764 77.417,220.322 76.461 C 219.547 74.787,219.013 73.581,218.152 71.564 C 217.929 71.043,217.166 69.391,216.457 67.895 C 215.747 66.398,215.166 65.041,215.166 64.878 C 215.166 62.552,210.090 59.431,208.738 60.925 " stroke="none" fill="#ffffff" fill-rule="evenodd"></path><path id="path1" d="M0.000 157.978 L 0.000 315.956 200.000 315.956 L 400.000 315.956 400.000 157.978 L 400.000 0.000 200.000 0.000 L 0.000 0.000 0.000 157.978 M213.586 32.900 C 214.716 33.066,217.275 33.337,219.273 33.503 C 221.272 33.668,223.532 33.954,224.295 34.137 C 225.059 34.321,226.978 34.668,228.560 34.910 C 230.143 35.151,232.077 35.517,232.859 35.723 C 237.035 36.823,242.534 38.421,244.234 39.028 C 247.647 40.248,250.153 41.248,250.702 41.611 C 251.045 41.837,251.521 42.022,251.760 42.022 C 252.737 42.022,261.728 46.471,267.397 49.759 C 269.797 51.152,272.143 52.504,272.610 52.765 C 273.078 53.025,273.531 53.323,273.618 53.427 C 273.705 53.530,274.700 54.233,275.829 54.989 C 276.959 55.745,278.256 56.656,278.712 57.013 C 279.168 57.370,279.941 57.946,280.430 58.294 C 281.991 59.403,284.507 61.368,284.834 61.733 C 285.008 61.927,286.429 63.152,287.992 64.455 C 291.543 67.416,297.857 73.738,300.872 77.353 C 302.130 78.861,303.318 80.237,303.512 80.411 C 303.706 80.585,304.450 81.509,305.166 82.464 C 305.882 83.420,306.684 84.487,306.949 84.834 C 312.449 92.058,319.535 104.295,322.592 111.848 C 322.978 112.804,323.405 113.808,323.541 114.080 C 324.151 115.307,325.750 119.521,325.750 119.903 C 325.750 120.137,325.956 120.730,326.208 121.222 C 326.693 122.171,327.397 124.256,328.111 126.856 C 328.350 127.725,328.847 129.502,329.216 130.806 C 329.585 132.109,330.084 134.171,330.325 135.387 C 330.566 136.603,330.911 138.025,331.092 138.547 C 331.272 139.068,331.563 140.676,331.738 142.121 C 331.914 143.566,332.145 144.890,332.253 145.065 C 332.469 145.414,333.151 153.139,333.491 159.084 C 333.729 163.264,332.990 175.616,332.242 179.937 C 332.002 181.327,331.715 183.318,331.604 184.360 C 331.494 185.403,331.210 186.967,330.974 187.836 C 330.738 188.705,330.451 190.197,330.336 191.153 C 330.221 192.109,329.940 193.460,329.712 194.155 C 329.483 194.850,329.152 196.130,328.975 196.998 C 328.552 199.082,327.002 204.528,326.052 207.267 C 324.961 210.414,324.015 212.930,323.492 214.081 C 323.170 214.787,322.907 215.460,322.907 215.575 C 322.907 215.809,320.830 220.431,320.393 221.169 C 320.239 221.430,319.646 222.567,319.074 223.697 C 316.686 228.418,311.525 236.477,308.072 240.877 C 295.710 256.629,280.652 270.159,266.667 278.084 C 262.575 280.402,253.833 284.673,253.169 284.678 C 253.033 284.679,252.545 284.877,252.084 285.117 C 251.623 285.358,250.699 285.733,250.031 285.950 C 249.362 286.168,248.535 286.539,248.192 286.775 C 247.849 287.011,247.315 287.204,247.006 287.204 C 246.696 287.204,245.913 287.488,245.264 287.836 C 244.616 288.183,243.754 288.468,243.349 288.468 C 242.944 288.468,242.322 288.623,241.967 288.813 C 240.921 289.373,235.527 290.885,231.754 291.676 C 230.885 291.858,229.032 292.277,227.636 292.607 C 226.240 292.937,224.534 293.209,223.844 293.212 C 223.155 293.215,221.596 293.432,220.379 293.693 C 213.686 295.130,191.486 295.146,183.084 293.720 C 181.527 293.455,179.329 293.090,178.199 292.909 C 175.508 292.476,173.042 291.967,171.090 291.441 C 169.290 290.956,166.498 290.227,164.032 289.599 C 163.104 289.363,162.187 289.011,161.994 288.818 C 161.801 288.626,161.352 288.463,160.995 288.457 C 160.639 288.451,159.779 288.171,159.084 287.836 C 158.389 287.500,157.532 287.220,157.179 287.215 C 156.827 287.209,156.258 287.011,155.915 286.775 C 155.573 286.539,154.745 286.168,154.077 285.950 C 153.408 285.733,152.484 285.358,152.023 285.117 C 151.562 284.877,151.069 284.679,150.928 284.678 C 150.045 284.671,139.004 279.059,134.329 276.239 C 133.695 275.857,132.962 275.439,132.701 275.312 C 131.108 274.532,122.345 268.331,118.799 265.474 C 109.489 257.971,99.154 246.682,92.993 237.283 C 92.594 236.675,92.088 235.969,91.869 235.715 C 91.649 235.460,91.327 235.014,91.153 234.722 C 90.282 233.260,88.230 229.820,87.621 228.800 C 86.084 226.226,81.768 217.917,81.409 216.842 C 81.305 216.528,81.084 216.058,80.918 215.798 C 79.966 214.295,76.439 205.056,75.793 202.370 C 75.626 201.675,75.291 200.537,75.050 199.842 C 70.877 187.852,70.091 145.831,73.803 133.175 C 74.058 132.306,74.405 130.828,74.575 129.889 C 74.744 128.951,75.009 128.026,75.162 127.835 C 75.315 127.644,75.589 126.848,75.770 126.066 C 76.114 124.583,78.148 118.474,78.664 117.378 C 78.827 117.030,79.325 115.821,79.770 114.692 C 80.672 112.405,80.899 111.916,83.867 105.845 C 86.387 100.691,87.767 98.133,89.068 96.206 C 89.607 95.408,90.047 94.700,90.047 94.632 C 90.047 94.445,94.775 87.473,95.537 86.537 C 95.906 86.083,96.422 85.389,96.682 84.994 C 103.968 73.950,121.790 58.087,136.019 49.980 C 137.930 48.891,139.708 47.872,139.968 47.715 C 140.879 47.167,144.354 45.498,144.584 45.498 C 144.712 45.498,145.040 45.313,145.315 45.087 C 145.589 44.861,146.596 44.349,147.551 43.949 C 149.768 43.020,150.840 42.555,152.607 41.755 C 153.389 41.401,154.455 41.009,154.976 40.885 C 155.498 40.760,156.209 40.476,156.556 40.252 C 156.904 40.029,157.757 39.704,158.452 39.531 C 159.147 39.357,160.569 38.916,161.611 38.550 C 164.319 37.600,167.593 36.675,170.075 36.159 C 171.255 35.913,172.463 35.586,172.761 35.431 C 173.058 35.277,174.155 35.054,175.197 34.935 C 176.240 34.817,177.733 34.522,178.515 34.280 C 179.297 34.038,181.560 33.684,183.544 33.494 C 185.528 33.303,187.303 33.054,187.487 32.940 C 188.558 32.278,209.147 32.246,213.586 32.900 M192.891 38.572 C 189.937 38.682,186.951 38.922,186.256 39.104 C 185.561 39.286,183.968 39.528,182.717 39.641 C 181.466 39.753,179.973 39.989,179.399 40.164 C 178.826 40.339,177.291 40.678,175.987 40.918 C 170.878 41.860,159.896 45.166,157.188 46.579 C 156.667 46.851,156.080 47.074,155.884 47.075 C 155.523 47.077,153.394 47.981,149.855 49.636 C 148.776 50.140,147.763 50.553,147.603 50.553 C 147.443 50.553,147.150 50.749,146.951 50.989 C 146.752 51.228,146.183 51.506,145.687 51.605 C 145.190 51.704,144.589 51.972,144.351 52.200 C 144.113 52.428,143.562 52.786,143.128 52.996 C 142.694 53.207,141.343 53.952,140.126 54.654 C 138.910 55.355,137.477 56.133,136.942 56.382 C 136.407 56.631,135.785 57.057,135.560 57.328 C 135.336 57.598,135.032 57.820,134.887 57.820 C 134.741 57.820,133.443 58.621,132.003 59.600 C 129.597 61.236,129.016 61.650,127.172 63.049 C 123.142 66.106,121.433 67.440,121.169 67.735 C 120.995 67.930,119.929 68.861,118.799 69.806 C 116.001 72.146,108.719 79.566,106.376 82.464 C 105.323 83.768,103.955 85.412,103.336 86.118 C 102.718 86.825,101.998 87.733,101.738 88.137 C 101.477 88.541,100.974 89.243,100.620 89.696 C 99.257 91.442,94.808 98.195,93.832 100.000 C 93.644 100.348,93.150 101.201,92.733 101.896 C 91.666 103.678,86.696 113.740,86.413 114.692 C 86.284 115.126,86.072 115.624,85.942 115.798 C 85.813 115.972,85.527 116.682,85.308 117.378 C 85.089 118.073,84.801 118.784,84.668 118.957 C 84.535 119.131,84.279 119.771,84.100 120.379 C 83.920 120.987,83.398 122.480,82.938 123.697 C 82.478 124.913,81.965 126.578,81.797 127.396 C 81.630 128.214,81.286 129.281,81.033 129.766 C 80.780 130.251,80.572 130.915,80.571 131.242 C 80.570 131.568,80.295 132.919,79.962 134.243 C 78.847 138.661,78.351 141.362,78.037 144.713 C 77.866 146.541,77.588 149.100,77.419 150.400 C 77.026 153.433,77.028 171.017,77.422 175.355 C 77.588 177.180,77.865 180.374,78.038 182.454 C 78.331 185.980,78.893 189.680,79.648 193.049 C 80.644 197.494,80.925 198.562,81.179 198.870 C 81.334 199.057,81.562 199.758,81.687 200.427 C 81.813 201.096,82.394 202.797,82.980 204.207 C 83.565 205.616,84.044 206.895,84.044 207.049 C 84.044 207.203,84.276 207.849,84.560 208.483 C 84.844 209.118,85.357 210.276,85.701 211.058 C 86.972 213.952,87.914 215.993,88.617 217.378 C 90.699 221.477,93.004 225.801,93.310 226.179 C 93.681 226.639,93.971 227.111,94.911 228.790 C 95.240 229.377,96.163 230.853,96.962 232.070 C 97.762 233.286,98.559 234.515,98.734 234.800 C 100.190 237.173,106.149 244.768,108.671 247.465 C 118.344 257.806,127.459 265.457,136.335 270.685 C 136.682 270.890,137.962 271.664,139.179 272.406 C 141.372 273.743,144.453 275.459,145.972 276.188 C 147.348 276.848,151.771 278.895,152.970 279.426 C 153.605 279.707,154.320 279.937,154.559 279.937 C 154.798 279.937,155.274 280.132,155.617 280.370 C 155.960 280.609,156.738 280.912,157.346 281.044 C 157.954 281.177,158.947 281.550,159.553 281.875 C 160.159 282.199,160.914 282.464,161.233 282.464 C 161.551 282.464,162.089 282.613,162.429 282.795 C 162.768 282.977,164.145 283.416,165.488 283.770 C 166.832 284.125,168.712 284.625,169.668 284.882 C 172.066 285.527,176.682 286.514,179.147 286.909 C 180.276 287.090,182.551 287.456,184.202 287.721 C 191.180 288.843,214.171 288.825,218.968 287.695 C 220.092 287.430,221.651 287.208,222.433 287.201 C 223.215 287.194,224.423 287.038,225.118 286.853 C 225.814 286.668,227.662 286.252,229.226 285.929 C 235.053 284.724,240.378 283.287,240.881 282.784 C 241.057 282.608,241.525 282.464,241.921 282.464 C 242.640 282.464,246.170 281.200,247.758 280.373 C 248.219 280.133,248.772 279.937,248.987 279.937 C 249.202 279.937,249.962 279.664,250.676 279.330 C 253.835 277.854,254.882 277.409,255.195 277.409 C 255.380 277.409,255.700 277.205,255.907 276.956 C 256.114 276.706,256.691 276.413,257.188 276.303 C 257.685 276.194,258.250 275.915,258.443 275.682 C 258.636 275.450,259.177 275.163,259.646 275.045 C 260.115 274.928,260.572 274.720,260.660 274.583 C 260.749 274.446,262.067 273.669,263.589 272.855 C 266.088 271.519,270.091 268.936,274.882 265.570 C 283.913 259.222,294.352 248.898,303.126 237.636 C 306.600 233.177,307.425 232.028,307.425 231.647 C 307.425 231.488,307.646 231.173,307.917 230.949 C 308.188 230.724,308.616 230.102,308.868 229.567 C 309.120 229.032,309.830 227.741,310.446 226.698 C 311.063 225.656,311.848 224.234,312.191 223.539 C 312.535 222.844,312.945 222.062,313.104 221.801 C 313.365 221.372,314.462 219.028,316.207 215.166 C 316.561 214.384,317.159 212.962,317.537 212.006 C 317.915 211.051,318.494 209.629,318.823 208.847 C 319.152 208.065,319.614 206.856,319.850 206.161 C 320.086 205.466,320.640 203.831,321.082 202.528 C 321.524 201.224,322.193 199.092,322.570 197.788 C 322.947 196.485,323.452 194.779,323.692 193.997 C 323.933 193.215,324.221 192.077,324.332 191.469 C 324.444 190.861,324.734 189.795,324.977 189.100 C 325.220 188.404,325.564 186.485,325.741 184.834 C 325.919 183.183,326.205 180.624,326.379 179.147 C 326.779 175.728,326.770 151.327,326.366 148.183 C 326.199 146.880,325.917 144.392,325.740 142.654 C 325.286 138.209,324.264 133.816,322.286 127.804 C 320.860 123.473,320.362 122.145,320.041 121.817 C 319.879 121.652,319.747 121.323,319.747 121.086 C 319.747 120.850,319.376 119.847,318.922 118.859 C 318.468 117.870,317.842 116.493,317.530 115.798 C 316.449 113.387,313.407 106.949,313.127 106.477 C 312.973 106.216,312.348 105.068,311.740 103.926 C 311.131 102.783,310.342 101.362,309.985 100.766 C 309.629 100.171,309.013 99.132,308.618 98.456 C 307.362 96.311,304.509 91.879,303.612 90.679 C 303.288 90.245,302.532 89.179,301.934 88.310 C 300.846 86.730,297.975 83.187,295.170 79.962 C 290.670 74.789,282.000 66.839,277.215 63.499 C 276.848 63.243,275.365 62.180,273.920 61.137 C 266.815 56.012,254.713 49.587,246.362 46.509 C 241.025 44.542,239.263 43.988,234.123 42.664 C 232.646 42.284,230.727 41.783,229.858 41.552 C 228.989 41.320,227.425 41.036,226.382 40.921 C 225.340 40.805,223.776 40.515,222.907 40.275 C 222.038 40.035,220.261 39.752,218.957 39.646 C 217.654 39.539,215.166 39.257,213.428 39.017 C 209.653 38.497,200.314 38.294,192.891 38.572 M197.304 62.006 C 199.679 64.462,204.752 74.044,211.062 87.994 C 211.612 89.210,212.747 91.627,213.585 93.365 C 214.423 95.103,215.704 97.804,216.432 99.368 C 217.160 100.932,218.186 103.136,218.712 104.265 C 220.188 107.437,221.095 109.433,221.297 109.953 C 221.398 110.213,221.615 110.640,221.780 110.900 C 221.944 111.161,222.461 112.227,222.929 113.270 C 223.398 114.313,224.483 116.659,225.342 118.483 C 226.201 120.308,227.197 122.441,227.555 123.223 C 227.913 124.005,228.700 125.711,229.304 127.014 C 231.219 131.144,231.851 132.530,232.040 133.017 C 232.141 133.278,232.358 133.705,232.523 133.965 C 232.858 134.496,236.378 142.057,237.083 143.760 C 237.191 144.021,237.401 144.447,237.550 144.708 C 237.839 145.213,238.374 146.346,240.455 150.869 C 241.174 152.433,242.232 154.708,242.805 155.924 C 245.400 161.434,246.416 163.618,247.070 165.087 C 247.457 165.956,248.246 167.662,248.824 168.878 C 249.810 170.954,251.010 173.531,253.605 179.147 C 254.207 180.450,254.966 182.085,255.292 182.780 C 255.617 183.476,255.963 184.258,256.060 184.518 C 256.157 184.779,256.371 185.205,256.535 185.466 C 256.699 185.727,257.253 186.864,257.766 187.994 C 258.279 189.123,259.194 191.114,259.800 192.417 C 260.405 193.720,260.989 195.000,261.096 195.261 C 261.204 195.521,261.421 195.948,261.579 196.209 C 261.864 196.678,262.827 198.733,264.764 203.002 C 265.316 204.218,266.311 206.351,266.974 207.741 C 267.637 209.131,268.536 211.051,268.971 212.006 C 269.405 212.962,270.218 214.739,270.777 215.956 C 272.027 218.678,273.282 221.497,274.645 224.645 C 276.259 228.373,275.988 230.357,273.934 229.848 C 272.530 229.501,269.990 225.981,267.671 221.169 C 267.462 220.735,266.921 219.739,266.470 218.957 C 266.018 218.175,264.805 215.829,263.774 213.744 C 262.743 211.659,261.764 209.704,261.598 209.400 C 261.431 209.096,261.131 208.527,260.930 208.136 C 260.730 207.745,260.445 207.212,260.298 206.951 C 260.151 206.690,259.879 206.122,259.695 205.687 C 259.511 205.253,258.578 203.262,257.622 201.264 C 256.666 199.265,255.621 197.062,255.298 196.367 C 254.976 195.671,254.218 194.036,253.614 192.733 C 253.010 191.430,252.128 189.439,251.655 188.310 C 251.182 187.181,250.598 185.976,250.358 185.633 C 250.118 185.290,249.921 184.776,249.921 184.490 C 249.921 184.205,249.642 183.617,249.302 183.184 L 248.682 182.397 226.790 182.212 C 204.190 182.021,188.284 181.536,187.296 181.007 C 185.656 180.130,187.361 178.152,190.521 177.266 C 193.063 176.553,190.364 176.649,233.557 175.734 C 240.562 175.585,244.326 175.389,244.554 175.162 C 244.915 174.800,244.794 174.445,242.948 170.458 C 242.465 169.415,241.483 167.212,240.766 165.561 C 240.050 163.910,239.131 161.848,238.724 160.979 C 237.548 158.462,236.155 155.446,235.223 153.397 C 234.749 152.354,233.799 150.292,233.112 148.815 C 230.622 143.461,230.382 142.941,229.574 141.153 C 229.122 140.154,228.409 138.590,227.991 137.678 C 227.572 136.765,226.807 135.095,226.290 133.965 C 225.773 132.836,224.890 130.916,224.327 129.700 C 223.765 128.483,222.815 126.422,222.216 125.118 C 220.757 121.941,219.723 119.716,218.473 117.062 C 217.900 115.845,216.907 113.712,216.266 112.322 C 215.625 110.932,214.566 108.657,213.912 107.267 C 211.260 101.627,210.464 99.915,209.655 98.104 C 209.189 97.062,208.674 95.995,208.511 95.735 C 208.347 95.474,208.063 94.905,207.880 94.471 C 207.696 94.036,207.182 92.899,206.737 91.943 C 204.755 87.685,204.441 87.000,204.127 86.256 C 203.943 85.821,203.673 85.253,203.526 84.992 C 203.379 84.731,202.965 83.878,202.607 83.096 C 201.751 81.232,198.414 74.249,196.566 70.458 C 194.549 66.320,193.933 66.363,192.113 70.774 C 191.933 71.209,191.649 71.777,191.480 72.038 C 191.312 72.299,190.726 73.507,190.180 74.724 C 189.078 77.175,187.909 79.752,187.027 81.675 C 186.708 82.370,186.297 83.294,186.115 83.728 C 185.933 84.163,185.651 84.731,185.489 84.992 C 185.327 85.253,184.881 86.177,184.498 87.046 C 184.114 87.915,183.338 89.621,182.772 90.837 C 182.207 92.054,181.363 93.902,180.896 94.945 C 180.430 95.987,179.782 97.409,179.457 98.104 C 179.131 98.799,178.786 99.581,178.692 99.842 C 178.597 100.103,178.383 100.529,178.216 100.790 C 178.050 101.051,177.322 102.543,176.599 104.107 C 175.876 105.671,174.751 108.088,174.098 109.479 C 173.446 110.869,172.622 112.646,172.268 113.428 C 171.914 114.210,170.885 116.414,169.981 118.325 C 169.076 120.237,167.773 123.009,167.083 124.487 C 166.394 125.964,165.360 128.167,164.785 129.384 C 164.210 130.600,163.376 132.378,162.932 133.333 C 162.488 134.289,161.391 136.635,160.495 138.547 C 158.246 143.344,157.746 144.428,157.363 145.340 C 157.181 145.774,156.894 146.343,156.725 146.603 C 156.556 146.864,155.973 148.073,155.429 149.289 C 154.485 151.401,153.808 152.866,151.487 157.820 C 150.917 159.036,149.928 161.169,149.289 162.559 C 148.650 163.949,147.488 166.438,146.707 168.088 C 145.144 171.392,144.790 172.147,142.635 176.777 C 141.826 178.515,140.766 180.790,140.278 181.833 C 139.791 182.875,138.796 185.008,138.069 186.572 C 137.342 188.136,136.316 190.340,135.791 191.469 C 134.314 194.640,133.407 196.637,133.205 197.156 C 133.104 197.417,132.887 197.844,132.723 198.104 C 132.558 198.365,132.075 199.360,131.647 200.316 C 130.370 203.173,128.926 206.289,127.328 209.637 C 126.498 211.374,125.083 214.360,124.183 216.272 C 118.939 227.414,117.022 230.016,114.056 230.016 C 112.125 230.016,112.563 228.505,117.654 217.614 C 118.284 216.266,118.799 215.096,118.799 215.012 C 118.799 214.877,119.344 213.698,122.599 206.793 C 123.090 205.750,123.944 203.902,124.495 202.686 C 125.822 199.755,127.165 196.859,128.450 194.155 C 129.028 192.938,129.951 190.948,130.500 189.731 C 131.050 188.515,132.110 186.240,132.856 184.676 C 135.328 179.490,136.746 176.437,138.871 171.722 C 139.105 171.201,139.789 169.708,140.389 168.404 C 140.989 167.101,141.799 165.324,142.188 164.455 C 142.577 163.586,143.458 161.667,144.145 160.190 C 145.387 157.516,146.162 155.879,149.600 148.657 C 150.593 146.572,151.802 144.013,152.288 142.970 C 153.449 140.478,155.905 135.241,157.030 132.859 C 157.522 131.817,158.590 129.542,159.403 127.804 C 160.215 126.066,161.453 123.436,162.154 121.959 C 163.736 118.623,166.503 112.697,168.867 107.583 C 169.269 106.714,170.092 104.937,170.696 103.633 C 171.878 101.084,172.949 98.709,173.262 97.946 C 173.368 97.686,173.576 97.259,173.724 96.998 C 174.016 96.483,174.773 94.870,176.282 91.548 C 178.050 87.657,179.195 85.178,180.402 82.622 C 181.687 79.903,182.610 77.895,184.177 74.408 C 184.723 73.191,185.308 71.983,185.477 71.722 C 185.646 71.461,185.932 70.893,186.113 70.458 C 187.589 66.922,190.180 62.631,191.542 61.464 C 193.619 59.687,195.204 59.836,197.304 62.006 M212.759 61.709 C 214.284 63.304,215.166 64.465,215.166 64.878 C 215.166 65.041,215.747 66.398,216.457 67.895 C 217.166 69.391,217.929 71.043,218.152 71.564 C 219.013 73.581,219.547 74.787,220.322 76.461 C 220.764 77.417,221.575 79.194,222.124 80.411 C 223.555 83.584,224.552 85.746,225.913 88.626 C 226.570 90.016,227.566 92.148,228.128 93.365 C 228.689 94.581,229.782 96.927,230.557 98.578 C 232.500 102.721,232.951 103.691,234.451 106.951 C 235.171 108.515,236.235 110.790,236.815 112.006 C 238.330 115.179,240.525 119.866,241.698 122.433 C 242.254 123.649,243.254 125.782,243.919 127.172 C 244.584 128.562,245.722 130.979,246.447 132.543 C 247.173 134.107,248.269 136.453,248.884 137.757 C 249.498 139.060,250.468 141.122,251.039 142.338 C 251.610 143.555,252.712 145.900,253.488 147.551 C 254.264 149.202,254.987 150.766,255.094 151.027 C 255.201 151.288,255.418 151.714,255.576 151.975 C 255.734 152.235,256.288 153.373,256.808 154.502 C 257.327 155.632,258.418 157.978,259.231 159.716 C 260.044 161.453,261.038 163.586,261.441 164.455 C 265.233 172.644,266.801 175.971,267.584 177.488 C 267.740 177.792,268.294 178.965,268.814 180.095 C 269.333 181.224,270.424 183.570,271.237 185.308 C 273.558 190.270,274.126 191.495,275.045 193.523 C 275.518 194.566,276.537 196.769,277.311 198.420 C 278.085 200.071,279.046 202.133,279.446 203.002 C 280.348 204.957,281.642 207.735,283.570 211.848 C 284.384 213.586,285.339 215.648,285.691 216.430 C 286.043 217.212,286.793 218.847,287.357 220.063 C 287.921 221.280,288.696 222.986,289.079 223.855 C 289.463 224.724,289.909 225.648,290.071 225.908 C 291.431 228.099,291.491 229.188,290.287 229.836 C 288.554 230.769,286.982 229.800,284.560 226.307 C 283.929 225.396,283.412 224.445,283.412 224.193 C 283.412 223.940,283.271 223.647,283.099 223.540 C 282.778 223.342,280.006 217.676,276.140 209.321 C 275.417 207.757,274.322 205.411,273.707 204.107 C 271.901 200.278,270.592 197.483,269.341 194.787 C 268.695 193.397,267.559 190.979,266.815 189.415 C 266.072 187.852,264.938 185.434,264.295 184.044 C 263.653 182.654,262.590 180.379,261.933 178.989 C 261.277 177.599,260.311 175.537,259.788 174.408 C 257.756 170.027,255.869 165.980,255.292 164.771 C 254.961 164.076,254.061 162.156,253.292 160.506 C 251.441 156.530,249.845 153.135,248.019 149.289 C 246.575 146.248,245.160 143.172,244.750 142.180 C 244.642 141.919,244.424 141.493,244.266 141.232 C 243.993 140.781,243.130 138.942,241.226 134.755 C 240.752 133.712,239.802 131.651,239.115 130.174 C 236.675 124.926,236.387 124.304,235.386 122.117 C 234.830 120.900,234.019 119.123,233.586 118.167 C 233.152 117.212,232.305 115.363,231.703 114.060 C 231.101 112.757,230.416 111.264,230.181 110.742 C 229.789 109.874,227.982 105.935,226.557 102.844 C 226.237 102.148,225.477 100.513,224.868 99.210 C 223.459 96.196,222.555 94.209,222.134 93.207 C 221.952 92.773,221.676 92.204,221.521 91.943 C 221.366 91.682,220.671 90.261,219.975 88.784 C 219.280 87.306,217.928 84.463,216.970 82.464 C 213.660 75.558,211.320 70.611,210.694 69.194 C 210.348 68.412,209.938 67.533,209.782 67.241 C 206.905 61.830,209.055 57.834,212.759 61.709 " stroke="none" fill="#000000" fill-rule="evenodd"></path></g></svg>