<svg id="svg" version="1.1" xmlns="http://www.w3.org/2000/svg" xmlns:xlink="http://www.w3.org/1999/xlink" width="400" height="400" viewBox="0, 0, 400,400"><g id="svgg"><path id="path0" d="M197.656 135.356 C 178.753 137.751,167.944 159.694,177.650 175.970 C 191.289 198.842,225.474 191.588,228.417 165.197 C 230.354 147.828,215.206 133.133,197.656 135.356 M205.735 136.719 C 229.125 140.798,235.362 171.369,215.456 184.363 C 202.020 193.134,183.317 187.364,177.214 172.564 C 169.345 153.481,185.490 133.189,205.735 136.719 M197.646 143.945 C 196.878 145.600,196.250 146.991,196.250 147.036 C 196.250 147.082,195.336 149.043,194.219 151.394 C 193.102 153.746,192.188 155.716,192.188 155.773 C 192.188 155.830,191.292 157.753,190.198 160.048 C 184.694 171.586,182.729 175.958,182.947 176.177 C 183.412 176.641,184.116 175.594,185.765 171.989 C 186.777 169.778,188.495 166.090,189.583 163.794 C 190.672 161.498,191.563 159.579,191.563 159.529 C 191.563 159.478,192.688 157.089,194.063 154.219 C 195.438 151.348,196.563 148.958,196.563 148.907 C 196.563 148.857,197.277 147.289,198.151 145.423 L 199.740 142.031 200.390 143.281 C 200.747 143.969,202.265 147.203,203.762 150.469 C 205.260 153.734,207.139 157.790,207.938 159.481 C 209.929 163.698,210.352 164.753,210.135 164.970 C 210.032 165.072,207.413 165.193,204.314 165.238 C 201.215 165.283,198.555 165.396,198.402 165.491 C 197.429 166.092,198.729 166.250,204.645 166.250 L 211.165 166.250 212.032 168.203 C 213.546 171.612,215.716 175.957,215.988 176.125 C 216.984 176.740,216.460 175.141,213.854 169.605 C 212.217 166.127,210.580 162.578,210.217 161.719 C 209.854 160.859,208.742 158.499,207.747 156.473 C 206.752 154.448,205.938 152.727,205.938 152.650 C 205.938 152.573,205.223 150.996,204.350 149.145 C 203.477 147.295,202.262 144.691,201.650 143.359 C 200.045 139.864,199.503 139.944,197.646 143.945 M202.500 141.095 C 202.500 141.181,203.498 143.396,204.718 146.017 C 205.938 148.637,208.278 153.664,209.918 157.188 C 211.559 160.711,213.664 165.211,214.597 167.188 C 215.530 169.164,216.867 172.012,217.567 173.516 C 218.534 175.591,218.988 176.250,219.454 176.250 C 219.825 176.250,220.001 176.096,219.899 175.859 C 219.807 175.645,217.252 170.195,214.222 163.750 C 211.192 157.305,208.452 151.469,208.134 150.781 C 207.815 150.094,206.699 147.722,205.652 145.512 C 204.606 143.301,203.750 141.367,203.750 141.215 C 203.750 141.062,203.469 140.938,203.125 140.938 C 202.781 140.938,202.500 141.008,202.500 141.095 M144.834 198.124 C 141.912 199.570,141.533 203.430,144.145 205.135 C 144.529 205.386,146.180 205.966,147.813 206.425 C 151.438 207.444,152.031 207.796,152.496 209.208 C 154.115 214.111,145.844 216.204,142.352 211.775 C 141.859 211.148,141.568 210.961,141.566 211.267 C 141.548 213.790,147.571 215.579,150.654 213.967 C 155.306 211.535,153.762 207.429,147.619 205.896 C 144.155 205.033,142.813 203.925,142.813 201.930 C 142.813 198.050,148.477 196.700,151.835 199.781 C 152.324 200.229,152.535 200.305,152.441 200.000 C 151.845 198.075,147.231 196.938,144.834 198.124 M97.519 198.828 C 97.365 199.215,95.750 202.691,93.929 206.553 C 92.109 210.415,90.673 213.720,90.739 213.897 C 90.804 214.074,91.516 212.813,92.319 211.094 C 93.123 209.375,94.715 205.965,95.858 203.516 C 97.001 201.066,98.026 199.063,98.136 199.063 C 98.290 199.063,101.941 206.708,102.719 208.659 C 102.828 208.933,102.110 209.066,100.107 209.142 L 97.344 209.246 100.210 209.311 L 103.076 209.375 104.189 211.719 C 104.801 213.008,105.384 214.063,105.484 214.063 C 105.785 214.063,105.323 212.886,103.589 209.241 C 101.096 204.001,99.662 200.923,99.031 199.453 C 98.393 197.970,97.934 197.780,97.519 198.828 M99.688 198.401 C 99.688 198.890,106.517 213.491,106.939 213.906 C 107.541 214.497,106.885 212.950,103.422 205.605 C 99.922 198.185,99.688 197.733,99.688 198.401 M108.750 206.094 L 108.750 214.063 113.490 214.063 C 116.096 214.063,118.144 213.977,118.040 213.873 C 117.936 213.769,115.944 213.706,113.613 213.732 L 109.375 213.780 109.375 205.953 C 109.375 200.943,109.263 198.125,109.063 198.125 C 108.862 198.125,108.750 200.990,108.750 206.094 M119.583 198.333 C 119.469 198.448,119.375 202.034,119.375 206.302 L 119.375 214.063 123.984 213.994 L 128.594 213.925 124.297 213.829 L 120.000 213.732 120.000 210.002 L 120.000 206.271 123.359 206.171 L 126.719 206.070 123.359 206.004 L 120.000 205.938 120.000 202.344 L 120.000 198.750 124.219 198.750 C 126.823 198.750,128.438 198.630,128.438 198.438 C 128.438 198.088,119.929 197.988,119.583 198.333 M131.699 206.094 C 131.699 210.563,131.743 212.347,131.796 210.060 C 131.850 207.772,131.850 204.116,131.796 201.935 C 131.742 199.753,131.698 201.625,131.699 206.094 M136.912 202.014 C 135.345 204.170,134.063 206.000,134.063 206.082 C 134.063 206.319,139.410 213.735,139.720 213.926 C 140.457 214.382,139.778 213.254,137.344 209.982 C 134.165 205.709,134.211 206.556,136.953 202.767 C 138.199 201.045,139.414 199.362,139.653 199.028 C 139.892 198.694,140.014 198.347,139.924 198.258 C 139.835 198.168,138.479 199.859,136.912 202.014 M160.035 199.427 C 159.711 200.172,158.090 203.654,156.434 207.166 C 154.778 210.677,153.479 213.700,153.547 213.884 C 153.615 214.068,154.324 212.813,155.122 211.094 C 158.703 203.382,160.794 199.065,160.950 199.064 C 161.122 199.062,165.625 208.477,165.625 208.839 C 165.625 208.948,164.395 209.085,162.891 209.142 L 160.156 209.246 163.065 209.311 L 165.973 209.375 167.089 211.797 C 167.703 213.129,168.264 214.061,168.334 213.869 C 168.405 213.677,167.765 212.060,166.913 210.275 C 166.060 208.491,164.457 205.069,163.349 202.670 C 161.075 197.749,160.859 197.537,160.035 199.427 M162.500 198.324 C 162.500 198.624,164.965 204.074,168.257 211.055 C 169.058 212.752,169.800 214.054,169.906 213.948 C 170.013 213.841,169.386 212.242,168.515 210.393 C 164.232 201.311,163.437 199.595,163.428 199.414 C 163.410 199.065,162.500 197.996,162.500 198.324 M171.771 198.333 C 171.425 198.679,171.525 213.690,171.875 213.906 C 172.080 214.033,172.188 211.500,172.188 206.539 L 172.188 198.978 172.819 199.781 C 173.393 200.511,174.610 202.182,181.112 211.172 C 182.262 212.762,183.326 214.063,183.476 214.063 C 183.628 214.063,183.718 210.467,183.678 206.016 L 183.605 197.969 183.516 205.547 C 183.419 213.758,183.415 213.775,182.031 211.723 C 179.923 208.595,172.331 198.142,172.161 198.134 C 172.061 198.129,171.885 198.219,171.771 198.333 M187.813 206.124 L 187.813 214.122 192.109 214.007 C 195.439 213.918,196.634 213.769,197.417 213.347 C 202.353 210.684,203.361 204.381,199.473 200.493 C 197.583 198.603,195.943 198.125,191.350 198.125 L 187.813 198.125 187.813 206.124 M205.000 206.094 C 205.000 211.198,205.112 214.063,205.313 214.063 C 205.491 214.063,205.625 213.131,205.625 211.894 L 205.625 209.725 209.241 209.628 L 212.857 209.531 214.106 211.797 C 214.794 213.043,215.490 214.063,215.653 214.063 C 215.817 214.063,215.517 213.324,214.987 212.422 C 213.178 209.339,213.193 209.426,214.323 208.542 C 216.444 206.881,217.175 203.676,215.971 201.316 C 214.680 198.787,213.120 198.125,208.448 198.125 L 205.000 198.125 205.000 206.094 M222.412 203.192 C 221.112 205.991,219.470 209.530,218.763 211.057 C 218.057 212.584,217.543 213.898,217.623 213.977 C 217.805 214.159,218.170 213.446,220.939 207.500 C 224.847 199.110,225.048 198.694,225.141 198.801 C 225.348 199.040,229.688 208.534,229.688 208.748 C 229.688 208.876,228.533 209.005,227.122 209.035 C 223.560 209.111,223.629 209.373,227.214 209.386 L 230.156 209.396 231.238 211.766 C 231.832 213.070,232.369 213.986,232.430 213.803 C 232.580 213.353,225.541 198.358,225.114 198.215 C 224.929 198.153,223.713 200.393,222.412 203.192 M226.563 198.252 C 226.563 198.438,229.038 203.887,231.332 208.750 C 232.021 210.211,232.842 212.004,233.156 212.734 C 233.471 213.465,233.862 214.063,234.027 214.063 C 234.191 214.063,233.129 211.496,231.666 208.359 C 230.203 205.223,228.531 201.637,227.951 200.391 C 227.055 198.467,226.563 197.708,226.563 198.252 M242.875 206.138 C 242.909 210.582,242.985 213.199,243.045 211.953 L 243.152 209.688 246.186 209.681 C 251.291 209.669,253.750 207.777,253.750 203.859 C 253.750 200.160,251.369 198.329,246.352 198.170 L 242.813 198.058 242.875 206.138 M256.865 198.516 C 256.846 199.238,256.839 213.277,256.857 213.672 C 256.871 213.969,257.976 214.046,261.484 213.994 L 266.094 213.925 261.641 213.829 L 257.188 213.733 257.188 210.002 L 257.188 206.270 260.703 206.171 L 264.219 206.071 260.703 206.004 L 257.188 205.938 257.188 202.344 L 257.188 198.750 263.745 198.750 L 270.302 198.750 270.391 206.484 L 270.480 214.219 270.553 206.484 L 270.625 198.750 272.969 198.750 C 274.323 198.750,275.313 198.618,275.313 198.438 C 275.313 197.938,256.878 198.016,256.865 198.516 M277.562 206.172 C 277.596 210.598,277.673 213.208,277.732 211.972 L 277.839 209.725 281.472 209.628 L 285.106 209.531 285.600 210.366 C 287.518 213.606,287.861 214.118,288.011 213.968 C 288.105 213.875,287.605 212.812,286.900 211.606 L 285.620 209.414 287.022 208.066 C 291.707 203.561,288.349 198.147,280.859 198.132 L 277.500 198.125 277.562 206.172 M289.690 198.387 C 289.688 198.616,290.908 200.866,292.399 203.387 L 295.110 207.969 295.172 210.873 C 295.257 214.804,295.625 214.949,295.625 211.051 L 295.625 207.936 292.658 202.952 C 291.027 200.211,289.691 198.157,289.690 198.387 M300.715 198.508 C 299.775 199.708,295.617 207.281,295.803 207.453 C 295.924 207.565,296.081 207.494,296.153 207.296 C 296.224 207.097,297.408 205.009,298.785 202.654 C 300.936 198.976,301.796 197.127,300.715 198.508 M303.574 206.094 C 303.574 210.563,303.618 212.347,303.671 210.060 C 303.725 207.772,303.725 204.116,303.671 201.935 C 303.617 199.753,303.573 201.625,303.574 206.094 M310.252 199.903 C 307.352 203.729,305.889 205.985,306.044 206.390 C 306.323 207.116,311.605 214.124,311.758 213.971 C 311.839 213.890,310.687 212.131,309.199 210.062 C 305.942 205.532,305.941 206.595,309.206 202.135 C 310.710 200.080,311.870 198.328,311.784 198.243 C 311.699 198.157,311.009 198.904,310.252 199.903 M197.031 199.350 C 201.697 201.539,202.894 207.919,199.278 211.319 C 197.459 213.030,195.857 213.537,191.797 213.689 L 188.125 213.827 188.125 206.289 L 188.125 198.750 191.953 198.757 C 195.035 198.762,196.025 198.878,197.031 199.350 M213.340 199.268 C 215.439 200.264,216.687 203.197,215.955 205.415 C 214.999 208.313,213.486 209.152,208.984 209.280 L 205.625 209.376 205.625 204.063 L 205.625 198.750 208.937 198.750 C 211.373 198.750,212.538 198.887,213.340 199.268 M250.940 199.533 C 255.962 203.238,253.279 209.005,246.390 209.312 L 243.125 209.457 243.125 204.103 L 243.125 198.750 246.502 198.750 C 249.615 198.750,249.961 198.811,250.940 199.533 M285.936 199.412 C 289.172 201.231,289.228 206.246,286.036 208.433 C 285.018 209.131,284.610 209.200,281.444 209.209 L 277.969 209.219 277.883 203.984 L 277.797 198.750 281.278 198.750 C 284.244 198.750,284.933 198.848,285.936 199.412 M196.136 221.260 C 191.549 222.634,189.187 228.555,191.431 233.056 C 194.044 238.301,201.730 239.211,205.304 234.699 C 210.579 228.039,204.288 218.817,196.136 221.260 M214.926 221.249 C 206.067 223.916,208.226 237.589,217.507 237.591 C 220.019 237.592,224.112 235.883,223.372 235.143 C 223.251 235.022,222.719 235.286,222.191 235.730 C 218.313 238.993,211.352 236.567,209.974 231.471 C 208.045 224.341,215.949 218.549,222.002 222.657 C 223.381 223.592,223.731 223.655,222.987 222.833 C 221.531 221.223,217.585 220.448,214.926 221.249 M151.442 222.020 C 151.165 222.444,150.938 222.852,150.938 222.927 C 150.938 223.067,149.980 225.142,146.452 232.643 C 145.324 235.042,144.465 237.069,144.544 237.148 C 144.762 237.366,144.677 237.533,148.440 229.448 C 150.382 225.278,152.019 221.915,152.080 221.976 C 152.297 222.192,156.563 231.631,156.563 231.894 C 156.563 232.041,155.402 232.210,153.984 232.268 L 151.406 232.373 154.255 232.436 L 157.103 232.500 158.125 234.844 C 158.687 236.133,159.280 237.188,159.443 237.188 C 159.809 237.188,160.179 238.054,155.938 228.965 C 152.078 220.693,152.194 220.873,151.442 222.020 M153.527 221.641 C 153.798 222.315,160.720 237.025,160.832 237.161 C 161.642 238.158,160.720 235.791,158.332 230.744 C 156.716 227.327,155.076 223.793,154.689 222.891 C 154.111 221.543,153.015 220.364,153.527 221.641 M163.125 229.183 L 163.125 237.188 166.819 237.188 C 173.385 237.188,176.576 234.897,177.101 229.806 C 177.638 224.608,174.072 221.527,167.266 221.310 L 163.125 221.178 163.125 229.183 M177.500 221.315 C 177.500 221.419,178.209 223.451,179.075 225.830 C 183.909 239.112,183.499 238.466,184.746 234.766 C 185.195 233.434,186.424 230.024,187.477 227.188 C 188.530 224.353,189.349 221.822,189.298 221.563 C 189.247 221.305,188.242 223.766,187.066 227.031 C 183.842 235.981,183.702 236.329,183.438 236.045 C 183.303 235.900,182.042 232.617,180.634 228.750 C 178.443 222.730,177.500 220.493,177.500 221.315 M200.926 221.589 C 204.100 222.270,206.881 225.846,206.877 229.241 C 206.867 237.435,195.530 240.220,191.886 232.925 C 188.755 226.654,193.981 220.100,200.926 221.589 M231.449 222.109 C 230.975 223.031,227.153 231.188,225.446 234.922 C 224.877 236.168,224.518 237.188,224.649 237.188 C 224.780 237.188,226.491 233.723,228.451 229.488 L 232.014 221.789 233.429 224.736 C 235.366 228.773,236.563 231.491,236.563 231.857 C 236.563 232.025,235.402 232.210,233.984 232.268 L 231.406 232.373 234.251 232.436 L 237.095 232.500 238.126 234.766 C 239.282 237.305,239.312 237.355,239.535 237.131 C 239.690 236.976,238.875 235.145,235.248 227.500 C 234.311 225.523,233.282 223.309,232.962 222.578 C 232.280 221.021,232.046 220.949,231.449 222.109 M233.438 221.308 C 233.438 221.409,234.853 224.495,236.582 228.167 C 238.312 231.839,239.945 235.371,240.210 236.016 C 240.476 236.660,240.818 237.188,240.971 237.188 C 241.380 237.188,241.528 237.538,237.669 229.362 C 234.532 222.716,233.438 220.632,233.438 221.308 M239.688 221.563 C 239.688 221.743,240.675 221.875,242.026 221.875 L 244.364 221.875 244.453 229.609 L 244.543 237.344 244.615 229.609 L 244.688 221.875 247.013 221.875 C 248.292 221.875,249.425 221.734,249.531 221.563 C 249.657 221.359,247.972 221.250,244.706 221.250 C 241.569 221.250,239.688 221.367,239.688 221.563 M251.563 229.219 L 251.563 237.188 256.172 237.119 L 260.781 237.050 256.484 236.954 L 252.188 236.857 252.188 233.127 L 252.188 229.396 255.547 229.296 L 258.906 229.195 255.547 229.129 L 252.188 229.063 252.188 225.469 L 252.188 221.875 256.406 221.875 C 259.010 221.875,260.625 221.755,260.625 221.563 C 260.625 221.369,258.906 221.250,256.094 221.250 L 251.563 221.250 251.563 229.219 M172.344 222.469 C 178.039 225.111,177.965 233.372,172.221 236.139 C 171.404 236.533,170.040 236.719,167.266 236.816 L 163.438 236.950 163.438 229.413 L 163.438 221.875 167.266 221.882 C 170.327 221.887,171.344 222.005,172.344 222.469 " stroke="none" fill="#d8d8d8" fill-rule="evenodd"></path><path id="path1" d="M0.000 200.000 L 0.000 400.000 200.000 400.000 L 400.000 400.000 400.000 200.000 L 400.000 0.000 200.000 0.000 L 0.000 0.000 0.000 200.000 M206.250 135.440 C 225.438 138.867,235.104 161.412,224.283 177.500 C 210.976 197.284,181.008 192.362,174.711 169.359 C 169.480 150.253,186.530 131.919,206.250 135.440 M195.705 137.053 C 180.986 140.278,171.820 156.301,176.613 170.425 C 182.848 188.794,205.304 194.312,219.488 180.961 C 227.298 173.610,229.563 160.243,224.576 150.938 C 218.734 140.039,207.260 134.521,195.705 137.053 M200.915 141.328 C 201.221 142.110,201.852 143.467,208.284 157.188 C 216.319 174.326,217.105 176.090,216.796 176.290 C 216.415 176.536,215.313 176.263,215.313 175.923 C 215.313 175.783,214.454 173.866,213.405 171.662 C 212.356 169.459,211.375 167.340,211.225 166.953 C 210.955 166.255,210.908 166.250,204.372 166.250 C 197.911 166.250,197.797 166.239,198.121 165.632 C 198.431 165.054,198.840 165.008,204.345 164.929 L 210.238 164.844 208.373 160.938 C 207.348 158.789,206.180 156.258,205.779 155.313 C 205.378 154.367,204.221 151.836,203.207 149.688 C 202.193 147.539,201.033 145.046,200.629 144.147 C 199.768 142.232,199.854 142.160,197.897 146.406 C 197.183 147.953,195.872 150.766,194.982 152.656 C 194.092 154.547,192.451 158.063,191.335 160.469 C 188.393 166.808,185.345 173.391,184.643 174.922 C 184.167 175.958,183.865 176.250,183.267 176.250 C 182.279 176.250,182.187 176.582,184.531 171.683 C 185.648 169.349,186.563 167.390,186.563 167.330 C 186.563 167.271,187.477 165.303,188.594 162.957 C 189.711 160.611,190.625 158.652,190.625 158.604 C 190.625 158.556,191.750 156.169,193.125 153.301 C 194.500 150.432,195.625 148.044,195.625 147.995 C 195.625 147.945,196.398 146.267,197.342 144.265 C 199.177 140.374,200.210 139.525,200.915 141.328 M208.731 151.644 C 211.557 157.701,214.530 164.063,215.338 165.781 C 220.617 177.009,220.329 176.252,219.318 176.244 C 218.673 176.239,218.049 175.067,213.619 165.541 C 210.883 159.657,207.894 153.247,206.978 151.296 C 206.062 149.345,205.313 147.697,205.313 147.635 C 205.313 147.573,204.688 146.249,203.926 144.693 C 202.032 140.831,201.978 140.624,202.870 140.629 C 203.515 140.632,204.152 141.829,208.731 151.644 M150.759 198.307 C 152.005 198.954,152.789 199.815,152.445 200.159 C 152.341 200.263,151.618 199.899,150.839 199.349 C 148.020 197.362,144.631 197.875,143.366 200.479 C 142.139 203.005,143.341 204.580,147.277 205.607 C 151.286 206.653,152.082 207.085,152.824 208.617 C 155.434 214.008,146.159 217.348,142.071 212.490 C 141.619 211.953,141.250 211.385,141.250 211.226 C 141.250 210.650,141.933 210.959,142.716 211.889 C 145.694 215.428,152.504 214.369,152.498 210.367 C 152.496 208.349,151.571 207.616,147.656 206.531 C 143.174 205.288,141.929 204.123,142.281 201.500 C 142.762 197.918,146.964 196.335,150.759 198.307 M100.828 199.609 C 101.264 200.598,102.311 202.852,103.154 204.620 C 103.998 206.387,104.688 207.894,104.688 207.969 C 104.688 208.044,105.222 209.199,105.875 210.537 C 107.428 213.718,107.529 214.007,107.166 214.232 C 106.869 214.415,105.520 211.731,101.368 202.703 C 99.619 198.900,99.288 197.813,99.879 197.813 C 99.965 197.813,100.391 198.621,100.828 199.609 M109.375 205.625 L 109.375 213.438 113.776 213.438 C 116.776 213.438,118.141 213.544,118.065 213.773 C 118.004 213.958,117.851 214.099,117.727 214.086 C 117.602 214.073,115.531 214.063,113.125 214.063 L 108.750 214.063 108.750 205.938 C 108.750 200.729,108.862 197.813,109.063 197.813 C 109.262 197.813,109.375 200.625,109.375 205.625 M132.115 206.193 C 132.062 211.176,131.917 214.063,131.719 214.063 C 131.387 214.063,131.095 198.979,131.411 198.157 C 131.987 196.654,132.191 198.984,132.115 206.193 M138.222 201.305 C 137.028 202.908,135.744 204.664,135.367 205.208 L 134.683 206.197 135.403 207.083 C 138.019 210.302,140.620 214.375,140.060 214.375 C 139.692 214.375,133.958 206.593,133.958 206.094 C 133.958 205.381,139.772 197.772,140.081 198.081 C 140.286 198.286,139.658 199.375,138.222 201.305 M163.594 199.501 C 164.004 200.429,164.927 202.433,165.644 203.954 C 166.361 205.475,167.567 208.055,168.323 209.688 C 169.079 211.320,169.848 212.919,170.031 213.240 C 170.250 213.625,170.259 213.929,170.055 214.133 C 169.673 214.515,169.917 214.977,165.658 205.829 C 162.604 199.268,162.065 197.813,162.692 197.813 C 162.777 197.813,163.183 198.572,163.594 199.501 M184.063 206.094 C 184.063 213.904,183.942 214.835,183.051 213.944 C 182.579 213.472,175.231 203.475,173.438 200.865 L 172.344 199.273 172.260 206.839 C 172.206 211.691,172.066 214.337,171.869 214.215 C 171.342 213.889,171.465 198.125,171.995 198.125 C 172.406 198.125,173.446 199.483,180.221 208.867 L 183.125 212.890 183.125 205.559 C 183.125 201.528,183.215 198.139,183.325 198.029 C 183.928 197.426,184.063 198.896,184.063 206.094 M228.477 204.393 C 233.275 214.688,233.149 214.375,232.506 214.375 C 232.337 214.375,231.684 213.250,231.056 211.875 L 229.913 209.375 226.969 209.375 C 225.086 209.375,224.095 209.262,224.219 209.063 C 224.325 208.891,225.538 208.750,226.915 208.750 C 229.333 208.750,229.410 208.727,229.204 208.079 C 228.680 206.427,225.135 199.119,224.953 199.314 C 224.841 199.434,223.976 201.219,223.031 203.281 C 219.228 211.577,217.803 214.406,217.517 214.229 C 217.218 214.044,217.779 212.745,222.411 202.905 C 224.195 199.115,224.901 197.901,225.220 198.079 C 225.453 198.210,226.919 201.051,228.477 204.393 M229.790 203.911 C 231.234 207.002,232.856 210.475,233.395 211.628 C 234.408 213.795,234.560 214.375,234.116 214.375 C 233.606 214.375,226.160 198.524,226.449 198.055 C 226.761 197.550,227.082 198.112,229.790 203.911 M292.092 201.685 C 293.063 203.422,294.198 205.390,294.615 206.057 L 295.373 207.271 297.352 203.870 C 300.673 198.160,300.931 197.772,301.267 197.979 C 301.473 198.107,301.340 198.598,300.904 199.324 C 300.525 199.954,299.224 202.156,298.011 204.219 L 295.808 207.969 295.688 211.173 C 295.540 215.138,295.000 215.119,295.000 211.148 L 295.000 208.271 293.099 204.995 C 290.035 199.715,289.375 198.493,289.375 198.104 C 289.375 197.297,290.382 198.625,292.092 201.685 M303.990 206.193 C 303.937 211.176,303.792 214.063,303.594 214.063 C 303.262 214.063,302.970 198.979,303.286 198.157 C 303.862 196.654,304.066 198.984,303.990 206.193 M312.093 198.234 C 312.004 198.466,310.725 200.307,309.252 202.326 C 307.197 205.141,306.637 206.118,306.852 206.519 C 307.005 206.806,308.274 208.573,309.671 210.446 C 311.186 212.478,312.097 213.966,311.928 214.135 C 311.610 214.453,311.305 214.094,307.945 209.452 C 305.166 205.613,305.112 206.680,308.304 202.284 C 311.100 198.431,312.654 196.770,312.093 198.234 M101.381 204.144 C 102.913 207.451,104.570 210.988,105.063 212.006 C 105.660 213.240,105.854 213.959,105.645 214.168 C 105.436 214.377,104.960 213.697,104.212 212.123 L 103.093 209.766 100.296 209.547 C 96.824 209.275,96.628 208.750,100.000 208.750 C 101.375 208.750,102.500 208.699,102.500 208.637 C 102.500 208.528,100.807 204.770,99.137 201.172 C 98.678 200.184,98.226 199.375,98.131 199.375 C 97.975 199.375,96.156 203.148,92.346 211.378 C 91.390 213.441,90.808 214.370,90.600 214.162 C 90.392 213.954,91.054 212.242,92.584 209.034 C 93.847 206.386,95.502 202.848,96.262 201.172 C 98.130 197.054,98.081 197.025,101.381 204.144 M128.750 198.438 C 128.750 198.631,127.083 198.750,124.375 198.750 L 120.000 198.750 120.000 202.177 L 120.000 205.604 123.359 205.693 C 125.331 205.745,126.719 205.910,126.719 206.094 C 126.719 206.277,125.331 206.443,123.359 206.495 L 120.000 206.584 120.000 210.011 L 120.000 213.438 124.357 213.438 C 126.924 213.438,128.792 213.566,128.906 213.750 C 129.012 213.922,128.986 214.065,128.847 214.068 C 128.708 214.071,126.519 214.107,123.984 214.146 L 119.375 214.219 119.375 206.172 L 119.375 198.125 124.063 198.125 C 126.979 198.125,128.750 198.243,128.750 198.438 M162.184 199.766 C 162.568 200.668,163.558 202.813,164.384 204.531 C 166.960 209.892,168.750 213.829,168.750 214.134 C 168.750 214.934,167.980 213.971,166.940 211.871 L 165.781 209.531 162.880 209.441 C 159.305 209.330,159.281 208.750,162.852 208.750 C 165.811 208.750,165.798 209.331,162.974 203.280 L 160.960 198.966 159.352 202.374 C 158.468 204.248,156.905 207.609,155.880 209.844 C 153.954 214.039,153.597 214.638,153.236 214.278 C 153.120 214.162,154.228 211.499,155.698 208.361 C 157.168 205.224,158.826 201.637,159.383 200.391 C 160.641 197.578,161.200 197.453,162.184 199.766 M197.656 198.833 C 202.473 201.459,203.415 208.184,199.490 211.938 C 197.607 213.739,196.593 214.024,191.845 214.081 L 187.656 214.132 187.573 206.100 L 187.489 198.067 192.104 198.194 C 195.599 198.291,196.946 198.445,197.656 198.833 M213.276 198.571 C 217.469 200.323,217.826 207.801,213.778 209.110 C 213.445 209.217,213.655 209.794,214.638 211.477 C 215.910 213.655,216.175 214.376,215.703 214.374 C 215.453 214.374,214.157 212.385,213.301 210.688 L 212.781 209.658 209.281 209.751 L 205.781 209.844 205.689 212.109 C 205.639 213.355,205.463 214.375,205.299 214.375 C 205.116 214.375,205.000 211.210,205.000 206.250 L 205.000 198.125 208.604 198.125 C 211.019 198.125,212.560 198.272,213.276 198.571 M250.406 198.547 C 254.698 200.341,254.993 206.671,250.895 209.033 C 249.965 209.569,249.227 209.688,246.832 209.692 C 243.114 209.698,243.035 209.751,243.172 212.142 C 243.235 213.248,243.149 214.088,242.969 214.136 C 242.768 214.189,242.626 211.343,242.573 206.172 L 242.489 198.125 245.942 198.125 C 248.135 198.125,249.764 198.279,250.406 198.547 M275.625 198.438 C 275.625 198.618,274.647 198.750,273.315 198.750 C 270.419 198.750,270.614 198.153,270.670 206.823 C 270.696 210.775,270.593 213.941,270.436 213.985 C 270.278 214.029,270.120 210.725,270.073 206.407 L 269.989 198.750 263.588 198.750 L 257.188 198.750 257.188 202.188 L 257.188 205.625 260.287 205.625 C 263.479 205.625,264.499 205.797,264.199 206.283 C 264.103 206.437,262.487 206.563,260.607 206.563 L 257.188 206.563 257.188 210.000 L 257.188 213.438 261.563 213.438 C 264.109 213.438,265.938 213.561,265.938 213.734 C 265.938 213.999,257.381 214.363,256.797 214.122 C 256.668 214.069,256.563 210.448,256.563 206.075 L 256.563 198.125 266.094 198.125 C 272.240 198.125,275.625 198.236,275.625 198.438 M285.719 198.631 C 289.594 200.594,290.269 205.553,287.046 208.383 C 285.697 209.567,285.683 209.260,287.195 211.731 C 287.887 212.861,288.369 213.920,288.267 214.085 C 287.960 214.582,287.582 214.146,286.341 211.866 L 285.156 209.692 281.654 209.690 L 278.152 209.688 278.061 211.953 C 278.010 213.199,277.828 214.219,277.656 214.219 C 277.458 214.219,277.313 211.273,277.260 206.172 L 277.177 198.125 280.948 198.125 C 283.805 198.125,284.961 198.248,285.719 198.631 M188.340 199.179 C 188.099 199.807,188.067 211.690,188.304 212.634 C 188.728 214.323,196.081 213.701,198.558 211.767 C 202.879 208.391,201.541 200.661,196.370 199.131 C 194.522 198.584,188.554 198.619,188.340 199.179 M205.625 203.879 L 205.625 209.063 209.016 209.063 C 213.789 209.063,215.938 207.492,215.938 204.001 C 215.938 200.365,214.091 198.947,209.166 198.801 L 205.625 198.696 205.625 203.879 M243.355 199.141 C 243.111 199.778,243.072 206.154,243.303 207.694 L 243.517 209.117 246.736 209.012 C 251.369 208.860,252.969 207.549,252.969 203.906 C 252.969 201.523,252.358 200.502,250.306 199.453 C 248.701 198.633,243.636 198.405,243.355 199.141 M278.125 203.906 L 278.125 209.063 281.301 209.063 C 286.245 209.063,288.872 206.916,288.303 203.341 C 287.784 200.075,285.720 198.750,281.151 198.750 L 278.125 198.750 278.125 203.906 M201.584 221.127 C 205.194 222.196,207.844 226.266,207.396 230.052 C 206.117 240.847,190.451 240.075,190.474 229.219 C 190.487 223.212,195.729 219.394,201.584 221.127 M220.121 221.067 C 221.992 221.631,223.937 223.063,223.468 223.532 C 223.230 223.770,222.929 223.680,222.426 223.220 C 218.927 220.020,212.871 221.359,210.634 225.827 C 207.132 232.820,215.194 239.999,221.839 235.804 C 223.387 234.827,224.067 234.757,223.252 235.658 C 221.456 237.643,216.637 238.382,213.996 237.076 C 204.584 232.422,210.084 218.047,220.121 221.067 M155.679 224.653 C 156.523 226.477,157.594 228.797,158.060 229.809 C 158.525 230.821,159.485 232.861,160.192 234.340 C 161.392 236.851,161.613 237.761,160.916 237.330 C 160.644 237.162,159.435 234.745,157.251 230.000 C 156.736 228.883,155.668 226.580,154.876 224.883 C 154.085 223.186,153.438 221.595,153.438 221.349 C 153.438 220.350,154.223 221.507,155.679 224.653 M172.697 221.947 C 177.616 224.612,178.745 230.630,175.089 234.697 C 173.141 236.863,171.765 237.305,166.905 237.326 L 162.969 237.344 162.885 229.537 C 162.839 225.243,162.856 221.587,162.923 221.412 C 163.134 220.859,171.538 221.319,172.697 221.947 M180.582 228.178 C 181.830 231.672,183.004 234.930,183.193 235.417 C 183.526 236.280,186.028 230.198,188.344 222.891 C 188.642 221.952,189.049 221.250,189.297 221.250 C 189.826 221.250,189.801 221.341,187.738 227.031 C 183.720 238.113,183.440 238.611,182.641 236.094 C 182.423 235.406,181.592 233.086,180.794 230.938 C 178.263 224.125,177.500 221.891,177.510 221.329 C 177.532 220.112,178.365 221.970,180.582 228.178 M237.892 229.456 C 240.993 236.121,242.111 239.274,240.499 236.807 C 239.643 235.497,233.198 221.281,233.379 221.100 C 233.746 220.734,234.385 221.917,237.892 229.456 M153.549 223.516 C 154.133 224.762,155.067 226.766,155.623 227.969 C 156.180 229.172,157.322 231.616,158.161 233.400 C 159.001 235.183,159.688 236.844,159.688 237.090 C 159.688 237.956,158.977 237.085,158.093 235.137 C 156.927 232.564,157.226 232.712,152.891 232.558 C 150.146 232.461,151.008 231.875,153.896 231.875 L 156.542 231.875 155.133 228.828 C 154.357 227.152,153.342 224.959,152.877 223.955 L 152.031 222.128 148.801 229.111 C 145.307 236.661,144.801 237.607,144.391 237.354 C 144.244 237.263,145.519 234.219,147.225 230.592 C 148.931 226.964,150.609 223.378,150.953 222.623 C 151.822 220.714,152.315 220.884,153.549 223.516 M235.084 226.719 C 236.446 229.641,238.094 233.156,238.745 234.531 C 239.887 236.943,240.061 237.887,239.238 237.204 C 239.022 237.024,238.456 235.962,237.981 234.845 C 237.438 233.568,236.927 232.802,236.605 232.784 C 236.324 232.768,235.742 232.725,235.313 232.688 C 234.883 232.652,233.793 232.594,232.891 232.561 C 230.262 232.463,231.000 231.908,233.889 231.809 L 236.528 231.719 234.830 228.125 C 233.896 226.148,232.904 223.969,232.624 223.281 C 232.177 222.180,232.086 222.106,231.857 222.656 C 230.142 226.796,224.998 237.051,224.597 237.129 C 224.158 237.215,224.172 237.072,224.707 236.036 C 225.552 234.396,230.081 224.687,231.139 222.245 C 231.915 220.454,232.439 221.047,235.084 226.719 M249.844 221.563 C 249.738 221.734,248.604 221.875,247.325 221.875 L 245.000 221.875 245.000 229.513 C 245.000 234.268,244.882 237.224,244.688 237.344 C 244.483 237.470,244.375 235.012,244.375 230.200 C 244.375 221.238,244.581 221.875,241.685 221.875 C 240.353 221.875,239.375 221.743,239.375 221.563 C 239.375 221.366,241.360 221.250,244.706 221.250 C 248.180 221.250,249.970 221.359,249.844 221.563 M260.938 221.563 C 260.938 221.756,259.271 221.875,256.563 221.875 L 252.188 221.875 252.188 225.302 L 252.188 228.729 255.547 228.818 C 257.519 228.870,258.906 229.035,258.906 229.219 C 258.906 229.402,257.519 229.568,255.547 229.620 L 252.188 229.709 252.188 233.136 L 252.188 236.563 256.589 236.563 C 259.539 236.563,260.953 236.671,260.880 236.893 C 260.810 237.101,259.068 237.245,256.166 237.283 L 251.562 237.344 251.562 229.297 L 251.563 221.250 256.250 221.250 C 259.167 221.250,260.938 221.368,260.938 221.563 M196.039 221.946 C 192.128 223.203,189.967 228.770,191.893 232.625 C 195.605 240.057,206.573 237.560,206.621 229.272 C 206.652 223.886,201.371 220.231,196.039 221.946 M163.618 222.393 C 163.509 222.678,163.433 225.994,163.450 229.761 L 163.481 236.611 167.470 236.509 C 171.279 236.411,171.527 236.364,172.987 235.460 C 178.213 232.225,177.383 224.322,171.610 222.355 C 169.552 221.654,163.891 221.681,163.618 222.393 " stroke="none" fill="#040404" fill-rule="evenodd"></path><path id="path2" d="M199.922 136.479 C 200.652 136.545,201.848 136.545,202.578 136.479 C 203.309 136.413,202.711 136.359,201.250 136.359 C 199.789 136.359,199.191 136.413,199.922 136.479 M190.000 137.344 C 189.570 137.589,189.359 137.790,189.531 137.790 C 189.703 137.790,190.195 137.589,190.625 137.344 C 191.055 137.098,191.266 136.897,191.094 136.897 C 190.922 136.897,190.430 137.098,190.000 137.344 M186.780 139.056 C 185.973 139.567,185.313 140.054,185.313 140.136 C 185.313 140.219,186.016 139.850,186.875 139.315 C 188.253 138.459,188.664 138.125,188.342 138.125 C 188.290 138.125,187.587 138.544,186.780 139.056 M214.688 138.555 C 214.688 138.628,215.188 138.984,215.800 139.345 C 216.412 139.706,216.825 139.859,216.718 139.686 C 216.508 139.347,214.688 138.333,214.688 138.555 M182.578 142.422 C 180.586 144.361,180.565 144.394,182.315 142.836 C 185.156 140.305,185.149 140.313,184.940 140.313 C 184.833 140.313,183.771 141.262,182.578 142.422 M198.945 140.874 C 198.848 141.032,199.130 141.091,199.574 141.006 C 200.059 140.913,200.499 141.024,200.682 141.285 C 200.933 141.644,200.963 141.638,200.859 141.250 C 200.718 140.725,199.219 140.431,198.945 140.874 M202.188 140.894 C 202.188 141.042,202.539 141.096,202.969 141.014 C 203.398 140.932,203.750 140.811,203.750 140.745 C 203.750 140.679,203.398 140.625,202.969 140.625 C 202.539 140.625,202.188 140.746,202.188 140.894 M217.813 142.285 C 217.813 142.339,218.270 142.796,218.828 143.301 L 219.844 144.219 218.926 143.203 C 218.070 142.256,217.813 142.044,217.813 142.285 M182.637 144.148 L 181.094 145.781 182.650 144.375 C 183.507 143.601,184.268 142.934,184.343 142.891 C 184.418 142.848,184.412 142.745,184.330 142.663 C 184.248 142.581,183.486 143.249,182.637 144.148 M221.887 144.531 C 222.655 145.391,223.535 146.445,223.843 146.875 C 224.383 147.630,224.383 147.622,223.851 146.638 C 223.548 146.078,222.668 145.023,221.896 144.294 L 220.492 142.969 221.887 144.531 M198.488 144.545 C 197.965 145.694,198.065 145.939,198.631 144.894 C 198.895 144.406,199.053 143.949,198.981 143.877 C 198.910 143.806,198.688 144.106,198.488 144.545 M220.000 144.473 C 220.000 144.527,220.457 144.984,221.016 145.488 L 222.031 146.406 221.113 145.391 C 220.258 144.444,220.000 144.231,220.000 144.473 M201.272 145.469 C 201.272 145.641,201.473 146.133,201.719 146.563 C 201.964 146.992,202.165 147.203,202.165 147.031 C 202.165 146.859,201.964 146.367,201.719 145.938 C 201.473 145.508,201.272 145.297,201.272 145.469 M176.704 150.029 C 176.429 150.561,176.259 151.051,176.327 151.119 C 176.395 151.187,176.684 150.752,176.970 150.152 C 177.613 148.805,177.390 148.702,176.704 150.029 M178.125 150.313 C 177.774 151.000,177.558 151.563,177.644 151.563 C 177.729 151.563,178.087 151.000,178.438 150.313 C 178.788 149.625,179.005 149.063,178.919 149.063 C 178.833 149.063,178.476 149.625,178.125 150.313 M224.219 150.313 C 224.485 150.828,224.774 151.250,224.860 151.250 C 224.946 151.250,224.798 150.828,224.531 150.313 C 224.265 149.797,223.976 149.375,223.890 149.375 C 223.804 149.375,223.952 149.797,224.219 150.313 M205.964 152.656 C 205.964 152.828,206.233 153.461,206.563 154.063 C 206.892 154.664,207.161 155.016,207.161 154.844 C 207.161 154.672,206.892 154.039,206.563 153.438 C 206.233 152.836,205.964 152.484,205.964 152.656 M208.776 155.156 C 208.776 155.328,209.046 155.961,209.375 156.563 C 209.704 157.164,209.974 157.516,209.974 157.344 C 209.974 157.172,209.704 156.539,209.375 155.938 C 209.046 155.336,208.776 154.984,208.776 155.156 M210.335 155.469 C 210.335 155.641,210.536 156.133,210.781 156.563 C 211.027 156.992,211.228 157.203,211.228 157.031 C 211.228 156.859,211.027 156.367,210.781 155.938 C 210.536 155.508,210.335 155.297,210.335 155.469 M191.309 157.046 C 190.368 158.984,190.472 159.255,191.442 157.391 C 191.876 156.558,192.177 155.823,192.112 155.758 C 192.046 155.692,191.685 156.272,191.309 157.046 M206.278 156.406 C 206.278 156.578,206.617 157.352,207.031 158.125 C 207.445 158.898,207.784 159.391,207.784 159.219 C 207.784 159.047,207.445 158.273,207.031 157.500 C 206.617 156.727,206.278 156.234,206.278 156.406 M228.516 160.156 C 228.520 160.844,228.584 161.088,228.659 160.699 C 228.733 160.311,228.730 159.748,228.652 159.449 C 228.574 159.151,228.513 159.469,228.516 160.156 M173.859 162.500 C 173.859 163.961,173.913 164.559,173.979 163.828 C 174.045 163.098,174.045 161.902,173.979 161.172 C 173.913 160.441,173.859 161.039,173.859 162.500 M212.526 160.156 C 212.526 160.328,212.796 160.961,213.125 161.563 C 213.454 162.164,213.724 162.516,213.724 162.344 C 213.724 162.172,213.454 161.539,213.125 160.938 C 212.796 160.336,212.526 159.984,212.526 160.156 M227.273 161.250 C 227.273 162.023,227.334 162.340,227.408 161.953 C 227.483 161.566,227.483 160.934,227.408 160.547 C 227.334 160.160,227.273 160.477,227.273 161.250 M189.426 161.107 C 188.902 162.256,189.002 162.501,189.568 161.457 C 189.833 160.969,189.990 160.511,189.919 160.440 C 189.847 160.368,189.626 160.669,189.426 161.107 M211.272 160.469 C 211.272 160.641,211.473 161.133,211.719 161.563 C 211.964 161.992,212.165 162.203,212.165 162.031 C 212.165 161.859,211.964 161.367,211.719 160.938 C 211.473 160.508,211.272 160.297,211.272 160.469 M190.212 162.358 C 189.478 163.898,189.581 164.160,190.349 162.705 C 190.697 162.044,190.927 161.448,190.860 161.381 C 190.792 161.313,190.501 161.753,190.212 162.358 M210.341 162.031 C 210.341 162.203,210.680 162.977,211.094 163.750 C 211.508 164.523,211.847 165.016,211.847 164.844 C 211.847 164.672,211.508 163.898,211.094 163.125 C 210.680 162.352,210.341 161.859,210.341 162.031 M227.266 163.906 C 227.270 164.594,227.334 164.838,227.409 164.449 C 227.483 164.061,227.480 163.498,227.402 163.199 C 227.324 162.901,227.263 163.219,227.266 163.906 M228.523 164.688 C 228.523 165.461,228.584 165.777,228.658 165.391 C 228.733 165.004,228.733 164.371,228.658 163.984 C 228.584 163.598,228.523 163.914,228.523 164.688 M201.328 165.232 C 202.660 165.291,204.840 165.291,206.172 165.232 C 207.504 165.174,206.414 165.126,203.750 165.126 C 201.086 165.126,199.996 165.174,201.328 165.232 M215.022 165.469 C 215.022 165.641,215.223 166.133,215.469 166.563 C 215.714 166.992,215.915 167.203,215.915 167.031 C 215.915 166.859,215.714 166.367,215.469 165.938 C 215.223 165.508,215.022 165.297,215.022 165.469 M186.926 166.420 C 186.402 167.569,186.502 167.814,187.068 166.769 C 187.333 166.281,187.490 165.824,187.419 165.752 C 187.347 165.681,187.126 165.981,186.926 166.420 M211.276 167.031 C 211.276 167.203,211.546 167.836,211.875 168.438 C 212.204 169.039,212.474 169.391,212.474 169.219 C 212.474 169.047,212.204 168.414,211.875 167.813 C 211.546 167.211,211.276 166.859,211.276 167.031 M226.116 169.866 C 226.001 170.324,225.967 170.759,226.041 170.833 C 226.115 170.906,226.269 170.592,226.384 170.134 C 226.499 169.676,226.533 169.241,226.459 169.167 C 226.385 169.094,226.231 169.408,226.116 169.866 M215.651 169.844 C 215.651 170.016,215.921 170.648,216.250 171.250 C 216.579 171.852,216.849 172.203,216.849 172.031 C 216.849 171.859,216.579 171.227,216.250 170.625 C 215.921 170.023,215.651 169.672,215.651 169.844 M185.996 171.421 C 185.055 173.359,185.160 173.630,186.130 171.766 C 186.563 170.933,186.865 170.198,186.799 170.133 C 186.734 170.067,186.373 170.647,185.996 171.421 M215.022 172.031 C 215.022 172.203,215.223 172.695,215.469 173.125 C 215.714 173.555,215.915 173.766,215.915 173.594 C 215.915 173.422,215.714 172.930,215.469 172.500 C 215.223 172.070,215.022 171.859,215.022 172.031 M214.085 172.969 C 214.085 173.141,214.286 173.633,214.531 174.063 C 214.777 174.492,214.978 174.703,214.978 174.531 C 214.978 174.359,214.777 173.867,214.531 173.438 C 214.286 173.008,214.085 172.797,214.085 172.969 M177.500 173.245 C 177.500 173.580,178.430 175.313,178.610 175.313 C 178.696 175.313,178.534 174.855,178.250 174.297 C 177.669 173.156,177.500 172.918,177.500 173.245 M182.969 174.892 C 182.706 175.520,182.564 176.106,182.652 176.194 C 182.740 176.282,182.813 176.278,182.813 176.184 C 182.813 176.090,183.025 175.504,183.285 174.882 C 183.546 174.259,183.688 173.750,183.602 173.750 C 183.516 173.750,183.231 174.264,182.969 174.892 M225.156 175.625 C 224.890 176.141,224.742 176.563,224.828 176.563 C 224.914 176.563,225.202 176.141,225.469 175.625 C 225.735 175.109,225.883 174.688,225.797 174.688 C 225.711 174.688,225.423 175.109,225.156 175.625 M177.827 176.835 C 178.201 177.500,179.066 178.660,179.748 179.413 L 180.988 180.781 179.922 179.375 C 179.335 178.602,178.538 177.441,178.152 176.797 C 177.225 175.251,176.955 175.282,177.827 176.835 M179.279 176.587 C 179.590 177.115,180.043 177.713,180.288 177.915 C 180.532 178.116,180.337 177.684,179.855 176.953 C 178.844 175.419,178.445 175.165,179.279 176.587 M219.591 180.823 C 218.765 181.611,218.141 182.307,218.204 182.371 C 218.267 182.434,219.008 181.786,219.851 180.930 C 221.771 178.980,221.598 178.908,219.591 180.823 M220.457 181.953 L 218.906 183.594 220.547 182.043 C 222.071 180.602,222.331 180.313,222.098 180.313 C 222.048 180.313,221.310 181.051,220.457 181.953 M182.882 181.016 C 184.598 182.585,185.122 182.926,184.079 181.794 C 183.487 181.151,182.879 180.625,182.729 180.625 C 182.578 180.625,182.648 180.801,182.882 181.016 M212.813 185.625 C 211.867 186.124,211.204 186.540,211.339 186.548 C 211.671 186.568,214.688 185.028,214.688 184.838 C 214.688 184.630,214.731 184.612,212.813 185.625 M213.438 186.875 C 212.836 187.204,212.456 187.480,212.594 187.487 C 212.925 187.504,214.688 186.588,214.688 186.398 C 214.688 186.194,214.669 186.201,213.438 186.875 M210.000 188.281 C 209.398 188.513,209.117 188.707,209.375 188.712 C 209.633 188.717,210.266 188.529,210.781 188.293 C 211.988 187.740,211.427 187.732,210.000 188.281 M200.234 189.914 C 200.793 189.983,201.707 189.983,202.266 189.914 C 202.824 189.844,202.367 189.788,201.250 189.788 C 200.133 189.788,199.676 189.844,200.234 189.914 M99.518 198.146 C 99.405 198.329,99.397 198.563,99.500 198.667 C 99.603 198.770,99.693 198.655,99.701 198.411 C 99.708 198.168,99.983 198.461,100.313 199.063 C 101.022 200.358,101.152 200.071,100.461 198.734 C 99.937 197.722,99.824 197.651,99.518 198.146 M131.411 198.157 C 131.095 198.979,131.387 214.063,131.719 214.063 C 132.143 214.063,132.310 198.435,131.891 198.016 C 131.689 197.814,131.524 197.862,131.411 198.157 M139.346 198.346 C 138.937 198.867,138.948 198.874,139.512 198.438 C 140.071 198.004,140.099 198.016,139.884 198.594 C 139.697 199.095,139.728 199.142,140.044 198.828 C 140.317 198.557,140.338 198.338,140.112 198.112 C 139.886 197.886,139.651 197.958,139.346 198.346 M162.331 198.146 C 162.218 198.329,162.209 198.563,162.312 198.667 C 162.416 198.770,162.500 198.663,162.500 198.430 C 162.500 198.151,162.666 198.213,162.986 198.612 C 163.453 199.195,163.458 199.191,163.131 198.516 C 162.748 197.725,162.626 197.668,162.331 198.146 M183.284 198.183 C 183.034 198.869,182.952 213.126,183.198 213.125 C 183.323 213.125,183.469 209.785,183.521 205.703 L 183.615 198.281 183.604 206.299 C 183.598 210.708,183.699 214.251,183.828 214.171 C 184.194 213.944,184.116 198.195,183.748 197.967 C 183.575 197.860,183.366 197.958,183.284 198.183 M226.412 198.115 C 226.309 198.282,226.506 198.950,226.849 199.600 C 227.192 200.250,227.474 200.641,227.475 200.469 C 227.477 200.297,227.277 199.805,227.031 199.375 C 226.484 198.418,226.443 198.015,226.923 198.311 C 227.147 198.449,227.199 198.397,227.061 198.173 C 226.789 197.733,226.656 197.721,226.412 198.115 M303.286 198.157 C 302.970 198.979,303.262 214.063,303.594 214.063 C 304.018 214.063,304.185 198.435,303.766 198.016 C 303.564 197.814,303.399 197.862,303.286 198.157 M131.796 210.060 C 131.743 212.347,131.699 210.563,131.699 206.094 C 131.698 201.625,131.742 199.753,131.796 201.935 C 131.850 204.116,131.850 207.772,131.796 210.060 M187.565 205.997 C 187.529 210.413,187.605 214.091,187.734 214.171 C 187.863 214.251,187.933 211.904,187.889 208.955 C 187.739 198.942,187.630 197.947,187.565 205.997 M242.648 206.094 C 242.655 213.295,242.874 215.585,243.375 213.695 C 243.448 213.422,243.373 213.441,243.157 213.750 C 242.923 214.084,242.801 211.885,242.734 206.094 L 242.640 197.969 242.648 206.094 M277.333 206.094 C 277.340 211.295,277.456 214.219,277.656 214.219 C 277.835 214.219,277.979 213.213,277.992 211.875 L 278.016 209.531 277.836 211.875 C 277.721 213.384,277.597 211.323,277.490 206.094 L 277.322 197.969 277.333 206.094 M303.671 210.060 C 303.618 212.347,303.574 210.563,303.574 206.094 C 303.573 201.625,303.617 199.753,303.671 201.935 C 303.725 204.116,303.725 207.772,303.671 210.060 M150.313 198.836 C 150.313 198.896,150.770 199.280,151.328 199.688 C 151.957 200.149,152.175 200.224,151.901 199.886 C 151.485 199.374,150.313 198.599,150.313 198.836 M249.375 198.973 C 249.633 199.069,250.125 199.276,250.469 199.434 C 251.084 199.717,251.084 199.714,250.487 199.236 C 250.154 198.969,249.661 198.761,249.393 198.775 C 248.973 198.796,248.970 198.823,249.375 198.973 M270.145 206.328 C 270.152 211.258,270.270 214.069,270.469 214.079 C 270.641 214.088,270.802 213.874,270.828 213.604 C 270.861 213.251,270.817 213.268,270.671 213.666 C 270.560 213.970,270.393 210.703,270.301 206.406 L 270.134 198.594 270.145 206.328 M277.957 203.984 L 277.969 209.219 280.860 209.237 L 283.752 209.256 280.946 209.148 L 278.140 209.039 278.043 203.894 L 277.945 198.749 277.957 203.984 M286.788 199.413 C 286.981 199.606,287.070 199.943,286.986 200.163 C 286.901 200.382,286.981 200.654,287.163 200.766 C 287.373 200.896,287.416 200.765,287.282 200.407 C 287.090 199.896,287.126 199.886,287.676 200.303 C 288.072 200.604,288.019 200.469,287.524 199.912 C 287.107 199.445,286.692 199.063,286.602 199.063 C 286.511 199.063,286.595 199.220,286.788 199.413 M159.426 200.170 C 158.902 201.319,159.002 201.564,159.568 200.519 C 159.833 200.031,159.990 199.574,159.919 199.502 C 159.847 199.431,159.626 199.731,159.426 200.170 M256.675 202.188 C 256.675 203.820,256.728 204.488,256.792 203.672 C 256.857 202.855,256.857 201.520,256.792 200.703 C 256.728 199.887,256.675 200.555,256.675 202.188 M173.739 201.390 C 174.265 202.155,174.845 202.873,175.027 202.985 C 175.209 203.098,174.843 202.472,174.212 201.595 C 172.805 199.636,172.416 199.468,173.739 201.390 M100.647 202.969 C 100.647 203.141,100.848 203.633,101.094 204.063 C 101.339 204.492,101.540 204.703,101.540 204.531 C 101.540 204.359,101.339 203.867,101.094 203.438 C 100.848 203.008,100.647 202.797,100.647 202.969 M216.016 203.906 C 216.020 204.594,216.084 204.838,216.159 204.449 C 216.233 204.061,216.230 203.498,216.152 203.199 C 216.074 202.901,216.013 203.219,216.016 203.906 M143.506 204.854 C 143.974 205.346,144.412 205.685,144.481 205.608 C 144.549 205.532,144.167 205.129,143.631 204.714 L 142.656 203.960 143.506 204.854 M306.000 205.375 C 305.545 205.830,305.514 206.457,305.934 206.717 C 306.112 206.826,306.163 206.700,306.055 206.419 C 305.952 206.150,306.041 205.720,306.253 205.465 C 306.715 204.909,306.531 204.844,306.000 205.375 M123.281 205.926 L 126.719 206.115 123.359 206.277 L 119.999 206.440 123.359 206.423 C 125.379 206.413,126.719 206.282,126.719 206.094 C 126.719 205.906,125.350 205.772,123.281 205.759 L 119.844 205.737 123.281 205.926 M258.840 205.856 C 259.834 205.918,261.381 205.918,262.277 205.855 C 263.173 205.792,262.359 205.741,260.469 205.742 C 258.578 205.743,257.845 205.794,258.840 205.856 M260.625 206.250 L 257.031 206.438 260.528 206.500 C 262.593 206.537,264.105 206.434,264.219 206.250 C 264.325 206.078,264.368 205.966,264.315 206.000 C 264.262 206.034,262.602 206.147,260.625 206.250 M165.124 207.262 C 165.107 207.823,165.154 208.105,165.229 207.889 C 165.304 207.673,165.494 207.576,165.652 207.673 C 166.065 207.928,166.003 207.396,165.547 206.775 C 165.204 206.308,165.152 206.368,165.124 207.262 M178.375 206.625 C 178.947 207.197,178.822 207.636,178.227 207.148 C 177.771 206.774,177.776 206.830,178.263 207.578 C 178.902 208.560,179.137 208.688,178.838 207.891 C 178.652 207.394,178.688 207.387,179.226 207.813 C 179.711 208.195,179.689 208.095,179.107 207.266 C 178.715 206.707,178.306 206.250,178.197 206.250 C 178.089 206.250,178.169 206.419,178.375 206.625 M134.341 206.961 C 134.581 207.266,134.851 207.441,134.941 207.351 C 135.032 207.260,135.398 207.433,135.756 207.734 C 136.406 208.281,136.406 208.281,135.809 207.576 C 135.481 207.188,135.142 206.941,135.057 207.027 C 134.971 207.112,134.677 207.008,134.404 206.794 C 133.962 206.450,133.955 206.468,134.341 206.961 M102.500 206.995 C 102.500 207.330,103.430 209.063,103.610 209.063 C 103.696 209.063,103.534 208.605,103.250 208.047 C 102.669 206.906,102.500 206.668,102.500 206.995 M287.815 207.340 C 287.603 207.596,287.269 207.714,287.074 207.603 C 286.879 207.491,286.825 207.516,286.954 207.659 C 287.083 207.801,286.945 208.211,286.648 208.568 C 286.350 208.926,286.631 208.734,287.272 208.142 C 287.913 207.550,288.438 207.022,288.438 206.970 C 288.438 206.750,288.176 206.906,287.815 207.340 M229.171 208.233 C 229.197 208.689,229.324 209.062,229.453 209.062 C 229.771 209.063,229.741 208.381,229.400 207.843 C 229.202 207.529,229.136 207.640,229.171 208.233 M243.172 208.359 L 243.125 209.375 245.859 209.311 L 248.594 209.248 246.035 209.143 C 243.525 209.040,243.474 209.022,243.348 208.191 C 243.230 207.417,243.215 207.432,243.172 208.359 M256.673 210.156 C 256.672 211.703,256.725 212.375,256.791 211.650 C 256.856 210.925,256.857 209.659,256.793 208.838 C 256.728 208.016,256.674 208.609,256.673 210.156 M285.469 208.459 C 284.953 208.789,284.691 209.060,284.887 209.061 C 285.083 209.062,285.575 208.786,285.981 208.448 C 286.910 207.674,286.687 207.679,285.469 208.459 M167.522 208.281 C 167.522 208.453,167.723 208.945,167.969 209.375 C 168.214 209.805,168.415 210.016,168.415 209.844 C 168.415 209.672,168.214 209.180,167.969 208.750 C 167.723 208.320,167.522 208.109,167.522 208.281 M100.000 208.750 L 97.344 208.946 100.078 209.004 C 101.732 209.039,102.813 208.939,102.813 208.750 C 102.813 208.578,102.777 208.464,102.734 208.496 C 102.691 208.528,101.461 208.642,100.000 208.750 M162.970 208.671 C 161.595 208.731,160.371 208.878,160.250 208.999 C 160.128 209.120,161.288 209.174,162.827 209.118 C 164.366 209.063,165.625 208.887,165.625 208.728 C 165.625 208.568,165.590 208.466,165.547 208.500 C 165.504 208.535,164.344 208.612,162.970 208.671 M224.267 208.984 C 224.187 209.113,224.846 209.179,225.733 209.129 C 228.606 208.970,228.956 208.845,226.659 208.797 C 225.423 208.771,224.346 208.855,224.267 208.984 M207.743 209.292 C 208.478 209.358,209.603 209.357,210.243 209.290 C 210.883 209.223,210.281 209.168,208.906 209.170 C 207.531 209.171,207.008 209.226,207.743 209.292 M100.703 209.599 C 101.176 209.670,101.949 209.670,102.422 209.599 C 102.895 209.527,102.508 209.469,101.563 209.469 C 100.617 209.469,100.230 209.527,100.703 209.599 M231.563 209.922 C 231.563 210.071,231.766 210.466,232.016 210.800 C 232.453 211.385,232.463 211.381,232.290 210.698 C 232.113 209.993,231.563 209.406,231.563 209.922 M295.089 211.406 C 295.092 212.266,295.152 212.580,295.224 212.105 C 295.296 211.630,295.294 210.927,295.220 210.543 C 295.146 210.158,295.087 210.547,295.089 211.406 M141.563 211.973 C 141.563 212.027,142.020 212.484,142.578 212.988 L 143.594 213.906 142.676 212.891 C 141.820 211.944,141.563 211.731,141.563 211.973 M310.249 212.660 C 310.770 213.689,311.777 214.473,312.038 214.051 C 312.165 213.846,311.945 213.394,311.534 213.015 C 310.849 212.384,310.837 212.383,311.340 212.993 C 312.285 214.141,311.885 214.259,310.891 213.125 C 310.363 212.523,310.074 212.314,310.249 212.660 M188.161 213.047 C 188.126 213.737,188.186 213.749,191.328 213.685 L 194.531 213.619 191.505 213.517 C 188.963 213.432,188.457 213.330,188.338 212.880 C 188.236 212.490,188.188 212.535,188.161 213.047 M105.487 213.399 C 105.639 213.950,105.591 214.078,105.298 213.897 C 105.032 213.733,104.981 213.780,105.143 214.041 C 105.302 214.298,105.488 214.324,105.693 214.120 C 105.897 213.915,105.880 213.614,105.642 213.233 C 105.324 212.722,105.306 212.741,105.487 213.399 M231.574 212.911 C 231.554 213.365,232.201 214.375,232.511 214.375 C 232.677 214.375,232.801 214.129,232.788 213.828 C 232.770 213.430,232.716 213.400,232.590 213.719 C 232.463 214.040,232.305 213.956,232.001 213.407 C 231.772 212.994,231.580 212.771,231.574 212.911 M288.009 213.594 C 288.224 214.171,288.196 214.183,287.637 213.750 C 287.073 213.314,287.062 213.320,287.471 213.841 C 287.776 214.230,288.011 214.302,288.237 214.076 C 288.463 213.850,288.442 213.630,288.169 213.359 C 287.853 213.046,287.822 213.092,288.009 213.594 M111.328 213.669 C 112.488 213.729,114.387 213.729,115.547 213.669 C 116.707 213.609,115.758 213.560,113.438 213.560 C 111.117 213.560,110.168 213.609,111.328 213.669 M124.154 213.671 C 126.803 213.731,128.392 213.883,128.278 214.068 C 128.175 214.235,128.307 214.286,128.576 214.182 C 129.862 213.689,128.305 213.444,124.278 213.506 L 119.844 213.575 124.154 213.671 M259.297 213.670 C 260.543 213.729,262.582 213.729,263.828 213.670 C 265.074 213.610,264.055 213.562,261.563 213.562 C 259.070 213.562,258.051 213.610,259.297 213.670 M146.953 214.278 C 147.254 214.357,147.746 214.357,148.047 214.278 C 148.348 214.199,148.102 214.135,147.500 214.135 C 146.898 214.135,146.652 214.199,146.953 214.278 M198.207 220.849 C 198.682 220.921,199.386 220.919,199.770 220.845 C 200.154 220.771,199.766 220.712,198.906 220.714 C 198.047 220.717,197.732 220.777,198.207 220.849 M216.957 220.849 C 217.432 220.921,218.136 220.919,218.520 220.845 C 218.904 220.771,218.516 220.712,217.656 220.714 C 216.797 220.717,216.482 220.777,216.957 220.849 M162.953 221.334 C 162.870 221.552,162.839 225.243,162.885 229.537 L 162.969 237.344 166.094 237.360 L 169.219 237.377 166.162 237.271 L 163.105 237.165 163.193 229.051 C 163.279 221.098,163.262 220.530,162.953 221.334 M198.047 221.471 C 198.434 221.545,199.066 221.545,199.453 221.471 C 199.840 221.396,199.523 221.335,198.750 221.335 C 197.977 221.335,197.660 221.396,198.047 221.471 M244.687 229.594 C 244.601 233.926,244.639 237.361,244.771 237.229 C 244.903 237.097,244.973 233.553,244.927 229.354 L 244.843 221.719 244.687 229.594 M222.939 222.734 C 223.641 223.564,223.295 223.666,222.368 222.902 C 221.816 222.447,221.823 222.480,222.418 223.124 C 222.900 223.646,223.219 223.781,223.441 223.559 C 223.664 223.336,223.544 223.048,223.054 222.633 L 222.344 222.031 222.939 222.734 M174.063 222.910 C 174.063 222.964,174.520 223.421,175.078 223.926 L 176.094 224.844 175.176 223.828 C 174.320 222.881,174.063 222.669,174.063 222.910 M205.234 223.772 C 206.054 224.704,206.173 225.271,205.419 224.648 C 204.943 224.255,204.937 224.278,205.339 224.925 C 205.581 225.313,205.829 225.482,205.890 225.299 C 205.951 225.115,206.202 225.218,206.453 225.530 C 206.848 226.022,206.848 225.974,206.453 225.156 C 206.205 224.639,205.671 223.937,205.266 223.595 L 204.531 222.973 205.234 223.772 M155.022 223.594 C 155.022 223.766,155.223 224.258,155.469 224.688 C 155.714 225.117,155.915 225.328,155.915 225.156 C 155.915 224.984,155.714 224.492,155.469 224.063 C 155.223 223.633,155.022 223.422,155.022 223.594 M230.676 224.545 C 230.152 225.694,230.252 225.939,230.818 224.894 C 231.083 224.406,231.240 223.949,231.169 223.877 C 231.097 223.806,230.876 224.106,230.676 224.545 M150.363 225.170 C 149.840 226.319,149.940 226.564,150.506 225.519 C 150.770 225.031,150.928 224.574,150.856 224.502 C 150.785 224.431,150.563 224.731,150.363 225.170 M190.409 229.219 C 190.411 230.250,190.469 230.634,190.539 230.073 C 190.609 229.511,190.607 228.667,190.536 228.198 C 190.464 227.728,190.408 228.188,190.409 229.219 M207.277 229.219 C 207.279 230.078,207.340 230.393,207.412 229.918 C 207.484 229.443,207.482 228.739,207.407 228.355 C 207.333 227.971,207.275 228.359,207.277 229.219 M255.469 229.051 L 258.906 229.240 255.546 229.402 L 252.186 229.565 255.546 229.548 C 257.567 229.538,258.906 229.407,258.906 229.219 C 258.906 229.031,257.537 228.897,255.469 228.884 L 252.031 228.862 255.469 229.051 M147.863 230.482 C 147.340 231.631,147.440 231.876,148.006 230.832 C 148.270 230.344,148.428 229.886,148.356 229.815 C 148.285 229.743,148.063 230.044,147.863 230.482 M151.249 232.109 C 151.249 232.238,152.128 232.304,153.203 232.256 C 156.524 232.108,156.844 231.971,153.984 231.922 C 152.480 231.896,151.250 231.980,151.249 232.109 M185.347 232.847 C 185.155 233.399,185.052 233.906,185.119 233.973 C 185.186 234.040,185.398 233.643,185.590 233.090 C 185.783 232.538,185.886 232.031,185.819 231.965 C 185.752 231.898,185.540 232.295,185.347 232.847 M231.249 232.109 C 231.249 232.238,232.128 232.304,233.203 232.256 C 236.524 232.108,236.844 231.971,233.984 231.922 C 232.480 231.896,231.250 231.980,231.249 232.109 M238.466 232.656 C 238.466 232.828,238.805 233.602,239.219 234.375 C 239.633 235.148,239.972 235.641,239.972 235.469 C 239.972 235.297,239.633 234.523,239.219 233.750 C 238.805 232.977,238.466 232.484,238.466 232.656 M145.988 234.545 C 145.465 235.694,145.565 235.939,146.131 234.894 C 146.395 234.406,146.553 233.949,146.481 233.877 C 146.410 233.806,146.188 234.106,145.988 234.545 M211.944 234.854 C 212.411 235.346,212.850 235.685,212.918 235.608 C 212.987 235.532,212.604 235.129,212.068 234.714 L 211.094 233.960 211.944 234.854 M165.090 236.794 C 166.084 236.856,167.631 236.855,168.527 236.792 C 169.423 236.730,168.609 236.679,166.719 236.679 C 164.828 236.680,164.095 236.732,165.090 236.794 M256.341 236.796 C 259.436 236.866,260.590 236.992,260.433 237.245 C 260.301 237.460,260.356 237.510,260.577 237.374 C 261.594 236.745,260.615 236.567,256.484 236.631 L 252.031 236.700 256.341 236.796 " stroke="none" fill="#5a5a5a" fill-rule="evenodd"></path></g></svg>