<?xml version="1.0" standalone="no"?>
<!DOCTYPE svg PUBLIC "-//W3C//DTD SVG 20010904//EN"
 "http://www.w3.org/TR/2001/REC-SVG-20010904/DTD/svg10.dtd">
<svg version="1.0" xmlns="http://www.w3.org/2000/svg"
 width="320.000000pt" height="346.000000pt" viewBox="0 0 320.000000 346.000000"
 preserveAspectRatio="xMidYMid meet">


<g transform="translate(0.000000,346.000000) scale(0.100000,-0.100000)"
fill="#fff" stroke="none">
<path d="M525 3316 c-121 -56 -303 -222 -375 -342 l-35 -58 0 -206 c0 -233 13
-332 75 -575 154 -604 516 -1155 1006 -1527 378 -288 855 -472 1279 -495 112
-5 124 -4 180 18 95 39 172 95 286 208 112 112 143 158 154 232 14 95 -62 294
-131 341 -120 83 -576 248 -682 248 -68 -1 -139 -44 -321 -198 -58 -49 -67
-54 -102 -49 -123 16 -572 401 -752 644 -168 228 -296 469 -282 534 4 16 35
56 77 96 135 130 178 178 204 230 25 50 25 54 14 130 -40 270 -117 550 -174
640 -23 35 -145 113 -215 138 -65 22 -147 19 -206 -9z"/>
</g>
</svg>
